{"glyphs":{"0":{"ha":643,"x_min":0,"x_max":0,"o":"m 226 -12 b 71 582 63 13 -7 275 b 390 982 133 828 264 982 b 485 951 422 982 454 972 b 600 556 569 894 621 721 b 590 474 594 506 593 492 b 226 -12 540 175 383 -35 m 351 803 b 224 171 222 685 149 318 b 251 143 235 151 242 143 b 265 147 256 143 260 144 b 432 761 389 208 488 574 b 389 824 419 804 407 824 b 351 803 379 824 367 817 "},"1":{"ha":251,"x_min":0,"x_max":0,"o":"m 200 -7 b 78 -7 200 -8 161 -8 l 49 -7 l 50 476 b 56 981 51 975 51 975 b 199 979 61 986 193 985 b 200 -7 203 975 204 6 "},"2":{"ha":622,"x_min":0,"x_max":0,"o":"m 74 728 b 26 788 25 775 22 778 b 115 868 29 793 79 839 b 381 979 211 944 304 979 b 571 647 525 979 614 857 b 333 194 542 504 451 331 b 314 169 322 182 314 171 b 431 185 315 169 368 176 b 540 199 493 194 525 199 b 558 179 558 199 557 193 b 571 58 568 106 572 63 b 315 18 568 53 576 54 b 47 -15 50 -19 51 -19 b 43 -11 44 -14 43 -11 b 42 4 43 -10 43 -3 b 53 142 26 133 25 124 b 419 804 281 294 482 660 b 376 829 413 821 397 829 b 151 700 324 829 238 781 b 128 682 140 689 135 682 b 74 728 118 682 107 694 "},"3":{"ha":656,"x_min":0,"x_max":0,"o":"m 332 -12 b 76 169 232 1 128 75 b 131 229 64 193 61 190 b 189 257 165 249 181 257 b 204 240 196 257 197 251 b 371 136 244 171 313 136 b 469 251 432 136 482 175 b 269 424 456 346 368 419 b 254 510 257 424 257 421 b 271 574 251 569 250 565 b 458 788 369 614 458 714 b 404 833 458 818 438 833 b 228 751 358 833 289 804 b 206 736 217 742 211 736 b 150 788 196 736 185 750 b 125 858 100 842 101 836 b 400 982 193 925 301 982 b 572 899 472 982 538 953 b 481 536 639 800 600 651 b 461 511 457 514 457 514 b 536 43 629 401 668 158 b 351 -15 489 3 406 -24 b 332 -12 349 -14 340 -14 "},"4":{"ha":658,"x_min":0,"x_max":0,"o":"m 374 125 b 86 92 101 89 90 88 b 71 239 81 96 67 229 b 136 361 72 243 101 297 b 336 728 171 425 261 590 b 474 979 411 865 474 979 b 604 914 475 981 594 921 b 604 -11 611 910 611 -4 b 460 -11 600 -15 465 -15 b 456 64 456 -7 456 -7 b 450 135 456 136 456 136 b 374 125 447 135 414 131 m 257 267 b 304 271 256 264 253 263 b 401 283 329 274 372 279 b 454 290 431 288 454 290 b 454 460 454 292 456 368 l 454 629 l 432 588 b 257 267 404 539 257 269 "},"5":{"ha":613,"x_min":0,"x_max":0,"o":"m 89 417 b 47 472 72 440 53 465 b 38 492 40 482 38 488 b 126 914 38 499 124 910 b 324 953 132 924 136 924 b 515 976 504 982 511 982 b 535 843 517 972 535 854 b 285 794 535 832 553 836 l 254 790 l 232 689 b 211 585 221 632 211 586 b 233 589 211 583 221 586 b 340 603 271 599 307 603 b 454 140 585 603 671 351 b 72 -12 349 36 192 -26 b 47 68 32 -8 35 -14 b 93 139 60 149 54 140 b 425 368 231 135 397 249 b 336 451 438 424 399 451 b 149 386 283 451 214 431 b 126 374 138 379 132 374 b 89 417 118 374 111 386 "},"6":{"ha":614,"x_min":0,"x_max":0,"o":"m 208 -12 b 49 129 139 -1 72 57 b 51 365 28 194 28 239 b 431 971 107 664 253 897 b 456 978 443 975 450 978 b 475 949 464 978 467 971 b 488 831 518 829 517 843 b 288 611 413 797 332 708 b 301 604 281 597 281 597 b 369 614 325 611 347 614 b 575 324 503 614 601 489 b 208 -12 544 124 372 -35 m 307 442 b 244 139 176 363 142 139 b 426 376 344 139 426 288 b 367 463 426 432 404 463 b 307 442 350 463 329 456 "},"7":{"ha":626,"x_min":0,"x_max":0,"o":"m 217 750 b 47 715 57 710 51 708 b 14 849 44 719 13 846 b 307 928 17 856 -1 851 b 557 843 528 971 557 853 b 443 564 557 835 569 864 b 356 356 413 492 374 399 b 292 203 338 313 308 244 b 193 -14 203 -11 200 -15 b 189 -12 193 -14 190 -12 b 172 -6 186 -11 179 -8 b 64 51 56 43 61 40 b 118 183 67 58 86 108 b 171 308 128 206 151 263 b 219 422 190 354 211 406 b 261 524 226 440 246 485 b 314 649 278 561 301 617 b 371 788 363 764 372 786 b 217 750 371 788 301 771 "},"8":{"ha":639,"x_min":0,"x_max":0,"o":"m 218 -6 b 136 506 19 31 -26 310 l 144 517 l 132 529 b 261 947 22 639 90 857 b 383 981 304 969 344 981 b 533 656 531 981 624 826 b 507 614 522 636 521 633 b 499 601 503 607 499 601 b 513 590 499 600 506 596 b 218 -6 732 417 499 -57 m 236 714 b 267 628 215 661 228 628 b 421 781 338 628 415 714 b 382 828 424 814 407 828 b 236 714 336 828 265 782 m 325 469 b 253 142 183 400 131 161 b 268 143 253 142 260 143 b 451 385 360 156 451 275 b 381 485 451 449 424 485 b 325 469 364 485 346 479 "},"9":{"ha":614,"x_min":0,"x_max":0,"o":"m 331 367 b 249 351 303 357 275 351 b 82 433 182 351 121 381 b 379 979 -58 629 138 988 b 574 665 524 974 603 844 b 318 86 532 401 449 214 b 151 -12 263 32 169 -24 b 121 67 149 -10 146 -3 b 104 121 106 108 103 118 b 132 138 107 125 107 126 b 303 310 193 165 253 225 b 331 367 317 333 333 368 m 269 774 b 267 507 161 665 160 479 b 425 778 365 532 450 678 b 368 826 417 811 396 826 b 269 774 340 826 306 810 "},"―":{"ha":732,"x_min":0,"x_max":0,"o":"m 663 972 l 663 0 l 69 0 l 69 972 m 365 515 l 624 944 l 108 944 m 635 65 l 635 906 l 383 486 m 99 903 l 99 68 l 349 486 m 110 29 l 624 29 l 367 457 "},"\u0000":{"ha":0,"x_min":0,"x_max":0,"o":""},"\r":{"ha":0,"x_min":0,"x_max":0,"o":""}," ":{"ha":339,"x_min":0,"x_max":0,"o":""},"\n":{"ha":0,"x_min":0,"x_max":0,"o":""},"!":{"ha":242,"x_min":0,"x_max":0,"o":"m 57 186 b 49 583 50 189 50 190 b 50 974 47 969 47 969 b 119 978 53 976 86 978 b 189 974 153 978 186 976 b 193 744 192 971 193 968 b 190 188 194 213 193 190 b 57 186 186 185 64 183 m 50 133 b 188 133 56 138 185 138 b 189 -11 193 126 194 -7 b 57 -14 188 -14 67 -15 b 47 61 49 -11 49 -11 b 50 133 47 125 47 131 "},"\"":{"ha":424,"x_min":0,"x_max":0,"o":"m 321 968 b 388 928 397 954 394 956 b 368 832 385 918 376 876 b 336 710 344 703 346 710 b 271 721 333 710 304 715 b 206 743 208 733 206 733 b 249 974 206 750 247 968 b 258 978 250 976 251 978 b 321 968 267 978 283 975 m 151 968 b 215 933 222 954 222 954 b 171 714 215 924 174 721 b 97 721 168 708 167 708 b 32 743 36 733 32 733 b 76 974 32 750 74 968 b 86 978 78 976 79 978 b 151 968 94 978 113 975 "},"#":{"ha":829,"x_min":0,"x_max":0,"o":"m 783 774 b 801 638 788 769 804 642 b 701 617 797 632 796 631 b 617 604 656 610 618 604 b 603 563 615 603 601 564 b 674 571 603 561 635 565 b 763 579 743 581 758 582 b 781 449 765 578 781 467 b 663 419 781 436 785 436 b 551 404 601 413 551 404 b 485 201 550 403 521 313 b 413 -18 417 -8 417 -11 b 381 -15 408 -22 406 -22 b 321 6 369 -11 343 -3 b 279 19 300 11 282 18 b 304 124 272 25 271 21 b 386 382 365 313 388 381 b 350 376 386 383 351 378 b 307 246 350 375 331 317 b 213 -24 213 -50 221 -24 b 88 18 208 -24 97 14 b 131 181 79 22 76 13 b 168 294 140 211 157 263 b 186 354 178 326 186 353 b 117 346 185 354 154 351 b 53 339 81 342 63 339 b 40 347 43 339 42 342 b 25 472 39 356 25 467 b 146 499 25 483 18 482 b 235 511 193 506 232 511 b 249 549 238 513 251 546 b 196 540 249 549 225 546 b 126 538 136 532 129 532 b 108 672 121 544 106 668 b 208 692 111 678 107 676 b 300 707 258 700 300 706 b 321 768 301 707 310 735 b 358 883 332 800 349 853 b 381 954 368 915 378 946 b 396 975 386 972 389 975 b 518 938 400 975 499 944 b 494 822 531 933 532 940 b 465 731 478 772 464 732 b 503 738 465 731 501 736 b 539 850 503 738 519 789 b 588 976 581 978 579 976 b 717 935 596 978 713 940 b 692 843 721 931 721 933 b 669 761 665 758 665 760 b 783 774 700 768 781 778 m 438 540 b 449 579 442 543 451 579 b 417 574 446 579 424 575 b 401 535 414 574 401 542 b 438 540 401 533 436 538 "},"$":{"ha":531,"x_min":0,"x_max":0,"o":"m 496 376 b 311 140 529 276 449 174 b 297 125 297 136 297 136 b 292 -1 296 21 294 1 b 215 -4 288 -6 285 -6 b 150 69 140 -3 149 -14 l 150 136 l 138 140 b 28 193 100 149 28 183 b 114 286 28 194 110 285 b 126 281 115 288 119 286 b 218 253 151 263 183 253 b 306 274 247 253 278 260 b 238 465 390 317 367 381 b 185 500 226 474 201 489 b 71 607 126 539 93 569 b 139 817 28 682 56 768 l 153 825 l 153 899 b 160 983 151 981 151 981 b 294 981 172 988 292 986 b 299 911 297 978 297 968 l 300 846 l 310 844 b 421 813 346 840 389 828 b 429 783 446 800 446 801 b 356 704 369 717 357 704 b 272 724 326 717 297 724 b 199 685 235 724 206 710 b 292 583 192 658 214 633 b 496 376 422 499 471 449 "},"%":{"ha":626,"x_min":0,"x_max":0,"o":"m 133 621 b 104 619 119 618 119 618 b 43 829 36 631 8 722 b 199 992 74 928 140 992 b 243 978 214 992 229 988 b 133 621 340 910 261 647 m 403 542 b 365 408 394 514 378 454 b 326 276 351 363 335 303 b 285 135 318 249 300 185 b 242 -7 246 0 246 -3 b 183 4 238 -11 240 -11 b 108 51 94 29 100 25 b 243 518 114 69 211 406 b 285 660 254 554 272 618 b 326 806 296 700 315 767 b 390 990 385 1006 379 990 b 514 957 396 990 504 961 b 500 876 522 953 522 950 b 449 700 489 839 467 761 b 403 542 432 640 411 568 m 146 872 b 129 699 97 800 86 676 b 211 863 168 719 208 799 b 193 914 213 897 206 914 b 146 872 181 914 165 900 m 511 367 b 447 -4 661 367 603 29 b 417 -4 432 -7 432 -7 b 511 367 269 17 358 367 m 442 74 b 521 275 493 101 539 218 b 506 290 518 286 513 290 b 418 147 479 290 432 219 b 442 74 410 97 421 63 "},"&":{"ha":628,"x_min":0,"x_max":0,"o":"m 601 501 b 508 243 583 411 550 325 b 532 228 508 243 519 236 b 558 210 544 219 556 211 b 485 97 561 208 507 125 b 436 122 481 93 464 101 l 428 129 l 401 103 b 169 -3 324 25 240 -12 b 36 178 83 10 32 79 b 115 422 40 244 63 314 l 142 474 l 135 492 b 193 933 69 660 93 829 b 333 1001 239 981 289 1001 b 463 799 421 1001 489 922 b 342 539 450 735 422 676 b 307 461 297 461 301 469 b 399 347 315 447 388 347 b 460 525 410 347 453 493 b 471 546 464 540 463 546 b 494 542 475 546 482 544 b 536 535 510 539 529 536 b 565 529 543 533 557 532 b 592 525 574 528 586 526 b 601 501 606 524 606 524 m 246 731 b 243 651 240 707 239 647 b 324 843 271 696 322 792 b 314 853 325 860 325 860 b 246 731 282 831 257 783 m 290 192 b 304 239 322 222 322 221 b 243 308 283 260 261 286 b 228 324 235 318 231 324 b 214 297 225 324 222 315 b 181 168 192 243 181 203 b 193 135 181 144 182 135 b 290 192 224 135 271 172 "},"'":{"ha":251,"x_min":0,"x_max":0,"o":"m 151 968 b 215 933 222 954 222 954 b 194 822 214 931 204 881 b 171 714 182 760 172 717 b 97 721 167 708 167 708 b 32 743 36 733 32 733 b 76 974 32 750 74 968 b 86 978 78 976 79 978 b 151 968 94 978 113 975 "},"(":{"ha":346,"x_min":0,"x_max":0,"o":"m 265 943 b 303 854 331 868 326 878 b 297 104 149 703 146 264 b 306 74 315 85 315 85 b 211 -11 215 -24 222 -18 b 54 304 150 25 79 168 b 218 969 7 567 83 878 b 231 976 224 974 226 976 b 265 943 238 976 244 967 "},")":{"ha":347,"x_min":0,"x_max":0,"o":"m 156 957 b 151 15 358 753 357 219 b 111 -11 129 -7 118 -14 b 42 68 108 -10 82 19 b 44 110 24 90 24 89 b 50 861 197 261 201 700 b 42 892 32 881 32 881 b 131 976 101 956 119 976 b 156 957 139 976 144 968 "},"*":{"ha":725,"x_min":0,"x_max":0,"o":"m 697 708 b 507 683 696 706 665 701 b 436 674 447 675 438 675 b 517 571 436 674 472 628 b 597 465 561 515 597 467 b 540 421 597 463 544 421 b 442 542 536 421 535 424 b 364 640 399 596 364 640 b 285 542 363 640 328 596 b 186 421 192 422 190 421 b 129 465 179 426 129 461 b 203 561 129 467 163 510 b 275 654 242 613 275 654 b 242 650 274 654 260 653 b 199 646 224 649 204 646 b 71 629 190 644 89 632 b 36 628 53 628 38 626 b 29 681 35 631 33 646 b 28 696 29 686 28 693 b 143 717 26 703 15 701 b 215 725 179 721 211 725 b 253 731 218 726 235 728 b 288 735 271 732 288 735 b 210 838 289 736 253 782 b 136 951 118 956 126 943 b 186 989 161 972 183 989 b 276 878 189 988 221 949 b 364 768 324 818 363 768 b 451 879 364 769 404 818 b 540 989 506 949 538 989 b 596 944 544 989 596 949 b 454 757 597 942 475 782 b 460 756 451 754 451 754 b 524 764 464 756 493 760 b 690 782 682 782 688 783 b 697 708 693 778 700 711 "},"+":{"ha":763,"x_min":0,"x_max":0,"o":"m 739 575 b 742 439 743 571 744 449 b 593 433 739 433 740 433 l 454 433 l 454 290 b 451 146 453 174 453 147 b 311 146 447 140 317 142 b 308 290 308 150 308 156 l 307 431 l 165 432 b 22 435 49 432 24 432 b 22 574 17 439 17 569 b 167 578 26 578 31 578 l 308 578 l 307 719 b 311 864 307 860 307 860 b 446 865 315 867 436 868 b 453 717 453 863 453 865 l 453 579 l 594 579 b 739 575 736 579 736 579 "},",":{"ha":256,"x_min":0,"x_max":0,"o":"m 215 165 b 192 -7 238 160 225 65 b 47 -157 154 -86 67 -178 b -4 -42 44 -154 1 -57 b 1 -25 -7 -33 -6 -29 b 81 122 33 -6 78 79 b 81 138 81 131 81 138 b 215 165 82 143 206 167 "},"-":{"ha":644,"x_min":0,"x_max":0,"o":"m 613 507 b 614 433 614 504 614 471 l 613 367 l 457 367 b 167 367 372 367 242 367 l 32 367 l 31 439 b 31 513 31 479 31 513 b 613 507 36 518 613 511 "},".":{"ha":236,"x_min":0,"x_max":0,"o":"m 203 117 b 186 39 208 113 207 108 b 156 -39 165 -33 161 -40 b 94 -21 154 -39 128 -31 b 28 8 31 -1 28 0 b 71 151 28 15 67 146 b 78 156 72 154 75 156 b 203 117 85 156 200 121 "},"/":{"ha":497,"x_min":0,"x_max":0,"o":"m 426 943 b 386 749 431 938 431 942 b 301 381 364 650 325 485 b 186 -19 200 -22 188 -21 b 128 -6 183 -18 157 -12 b 75 43 61 10 65 6 b 111 201 76 51 93 122 b 154 390 129 281 149 365 b 193 556 160 414 178 489 b 243 771 208 622 231 719 b 294 974 294 993 289 971 b 426 943 300 976 424 947 "},":":{"ha":249,"x_min":0,"x_max":0,"o":"m 158 453 b 36 492 144 456 39 489 b 76 642 31 496 65 625 b 133 632 81 649 83 647 b 192 614 158 625 185 617 b 192 529 217 607 217 613 b 158 453 168 453 168 451 m 149 201 b 213 174 208 183 213 182 b 168 28 213 163 172 33 b 101 43 164 24 171 22 b 35 74 38 63 35 64 b 78 215 35 79 74 210 b 149 201 82 221 85 221 "},";":{"ha":297,"x_min":0,"x_max":0,"o":"m 149 471 b 83 500 86 490 82 492 b 125 642 83 507 122 636 b 183 632 129 649 133 647 b 242 614 208 625 235 617 b 242 529 265 607 267 613 b 210 451 219 458 217 450 b 149 471 210 451 182 460 m 185 219 b 243 229 217 225 233 229 b 257 204 257 229 256 222 b 144 -57 267 133 214 8 b 79 -92 115 -85 86 -100 b 29 24 78 -90 33 11 b 35 39 26 31 28 35 b 114 192 68 60 119 160 b 185 219 111 206 111 206 "},"<":{"ha":539,"x_min":0,"x_max":0,"o":"m 292 456 b 447 289 342 399 394 343 b 479 183 519 211 517 224 b 415 125 440 142 426 125 b 378 156 406 125 397 136 b 321 213 360 172 335 199 b 228 310 272 264 251 286 b 138 403 215 324 174 365 b 69 476 71 469 69 471 b 138 551 69 483 71 485 b 228 644 174 589 215 631 b 274 692 240 657 261 679 b 418 831 379 801 406 831 b 507 739 425 831 504 746 b 447 665 508 732 506 729 b 292 499 394 611 342 556 l 271 476 l 292 456 "},"=":{"ha":808,"x_min":0,"x_max":0,"o":"m 44 560 b 36 632 36 563 36 563 b 39 701 36 686 36 699 b 765 704 42 706 756 708 b 771 632 772 701 771 708 b 767 563 771 569 771 567 b 44 560 764 560 58 557 m 769 418 b 767 278 774 413 771 282 b 44 275 764 275 58 272 b 36 347 36 276 36 278 b 39 417 36 401 36 414 b 769 418 42 421 765 422 "},">":{"ha":538,"x_min":0,"x_max":0,"o":"m 400 550 b 468 475 467 483 468 482 b 400 400 468 468 467 467 b 310 308 363 363 322 321 b 122 121 163 156 128 121 b 31 214 114 121 39 201 b 90 286 29 219 32 224 b 186 389 121 319 164 365 b 246 453 207 413 235 442 l 267 475 l 256 488 b 199 549 250 494 224 521 b 136 614 174 575 146 604 b 43 751 18 739 24 732 b 122 831 99 811 118 831 b 264 690 128 831 151 807 b 400 550 303 650 364 588 "},"?":{"ha":563,"x_min":0,"x_max":0,"o":"m 267 940 b 397 982 314 968 358 982 b 535 746 497 982 560 892 b 222 199 504 575 376 351 b 175 167 190 167 182 161 b 94 258 174 168 136 211 b 115 297 86 268 88 269 b 394 792 257 433 379 650 b 383 836 399 826 394 839 b 158 639 329 822 238 742 b 139 621 149 628 146 621 b 83 657 131 621 118 632 b 32 714 22 703 24 701 b 267 940 81 788 196 899 m 126 178 b 228 88 135 178 224 94 b 140 -17 229 82 154 -7 b 83 24 133 -22 132 -21 b 33 69 57 47 35 68 b 75 126 31 76 33 79 b 126 178 110 165 119 178 "},"@":{"ha":914,"x_min":0,"x_max":0,"o":"m 449 964 b 553 979 485 974 519 979 b 865 496 778 979 933 761 b 601 199 819 314 703 199 b 486 265 558 199 518 219 b 350 204 446 233 406 204 b 222 440 256 204 189 301 b 471 703 258 593 371 703 b 543 681 496 703 521 696 b 608 643 551 675 581 658 b 653 597 668 610 663 615 b 607 351 607 497 585 374 b 714 503 624 335 690 429 b 554 831 774 685 694 831 b 476 817 529 831 504 826 b 196 261 288 754 129 440 b 496 124 236 153 336 108 b 522 126 508 125 519 126 b 569 -11 528 126 569 3 b 397 -25 569 -21 458 -29 b 79 164 242 -15 144 43 b 449 964 -61 424 149 878 m 389 376 b 461 538 431 418 461 485 b 450 549 461 556 461 556 b 360 369 404 518 360 431 b 389 376 360 349 361 350 "},"A":{"ha":617,"x_min":0,"x_max":0,"o":"m 110 -25 b -8 24 -14 14 -10 13 b 286 964 -6 32 282 956 b 292 971 288 967 290 969 b 422 931 294 971 414 935 b 489 638 426 929 426 929 b 582 204 521 486 563 292 b 611 28 618 35 618 32 b 478 1 603 24 481 0 b 447 122 472 6 471 13 b 422 233 435 182 424 232 b 306 194 422 233 369 215 l 189 156 l 168 92 b 110 -25 126 -43 132 -32 m 247 342 b 244 331 244 336 244 331 b 318 356 244 331 278 342 b 392 381 358 369 392 381 b 339 629 392 381 340 625 b 322 585 338 631 331 610 b 247 342 311 547 260 385 "},"B":{"ha":590,"x_min":0,"x_max":0,"o":"m 144 -19 b 32 15 99 -14 40 4 b 63 651 26 21 26 18 b 71 804 65 701 69 769 b 97 899 76 889 75 882 b 303 971 163 947 236 971 b 450 915 360 971 413 953 b 400 561 540 825 519 674 b 390 551 394 556 390 551 b 411 540 390 550 400 546 b 532 144 574 463 626 289 b 144 -19 456 29 294 -40 m 211 621 b 229 622 210 611 208 611 b 335 817 329 674 392 790 b 222 801 313 826 238 817 b 211 621 222 801 211 639 m 188 219 b 188 128 182 124 182 129 b 192 126 190 128 192 126 b 217 128 193 126 204 128 b 324 413 431 144 510 354 b 236 422 303 419 265 422 b 200 418 218 422 203 421 b 196 357 200 418 197 390 b 188 219 194 324 190 263 "},"C":{"ha":542,"x_min":0,"x_max":0,"o":"m 243 -24 b 19 390 101 -7 14 154 b 294 957 26 654 144 899 b 535 879 382 992 481 960 b 497 826 547 860 549 861 b 415 788 422 775 425 776 b 313 793 381 832 356 833 b 218 156 175 665 121 303 b 383 236 258 94 321 125 b 460 236 403 269 394 269 b 515 164 542 194 538 201 b 243 -24 443 35 342 -35 "},"D":{"ha":564,"x_min":0,"x_max":0,"o":"m 32 842 b 31 893 32 851 31 874 l 29 928 l 43 935 b 274 996 126 976 204 996 b 543 589 471 996 593 838 b 115 -11 499 374 325 129 b 89 -28 99 -22 90 -28 b 86 -15 88 -28 88 -22 b 82 56 86 -8 85 24 b 76 153 81 88 78 131 b 32 842 72 204 33 821 m 254 846 b 182 821 201 840 182 833 b 193 657 183 814 188 742 b 210 394 199 574 206 456 b 217 282 214 335 217 283 b 236 303 217 279 219 282 b 254 846 454 578 464 867 "},"E":{"ha":524,"x_min":0,"x_max":0,"o":"m 188 -22 b 31 397 68 -8 11 144 b 69 692 39 499 50 590 b 76 729 72 707 75 725 b 97 831 78 739 92 804 b 124 947 101 850 118 924 b 147 974 128 965 124 974 b 340 949 172 974 224 965 b 443 933 365 944 413 939 b 510 903 514 924 514 924 b 501 840 508 897 506 869 b 492 783 497 810 493 785 b 482 779 490 781 489 779 b 379 792 469 779 444 782 b 250 810 294 804 263 810 b 243 803 242 810 243 807 b 233 754 243 800 239 778 b 208 625 226 718 218 674 b 196 539 204 594 200 571 b 193 514 194 528 193 517 b 192 510 192 513 192 510 b 306 565 193 510 238 531 b 393 603 386 604 388 604 b 450 496 397 603 421 558 b 381 435 461 472 464 476 b 199 346 254 372 218 356 l 178 336 l 178 286 b 215 129 179 188 194 121 b 388 314 254 146 319 215 b 400 331 393 322 399 329 b 507 224 401 331 507 225 b 485 193 507 222 497 208 b 188 -22 369 36 275 -32 "},"F":{"ha":476,"x_min":0,"x_max":0,"o":"m 107 -10 b 21 961 103 14 24 908 b 33 972 21 968 18 972 b 132 964 46 972 74 969 b 483 924 513 928 481 931 b 469 788 485 915 472 792 b 317 796 465 782 465 782 b 185 808 246 803 188 808 b 203 582 182 808 200 585 b 254 601 203 582 226 590 b 319 624 297 617 313 624 b 326 618 324 624 325 621 b 372 494 332 608 372 499 b 275 449 372 485 376 488 b 217 421 217 426 217 426 b 254 -1 218 408 254 7 b 188 -18 254 -12 254 -12 b 111 -19 117 -24 114 -24 b 107 -10 110 -18 107 -14 "},"G":{"ha":614,"x_min":0,"x_max":0,"o":"m 219 -21 b 111 732 7 10 -50 404 b 393 971 188 888 294 971 b 567 843 461 971 524 929 b 510 783 582 813 585 815 b 446 760 472 767 456 760 b 429 779 438 760 436 767 b 385 817 417 804 403 817 b 322 779 368 817 349 804 b 190 192 200 656 133 354 b 244 132 206 151 222 132 b 307 168 261 132 282 143 b 407 346 347 208 429 353 b 246 319 400 344 251 319 b 229 361 236 319 235 322 b 219 422 226 379 221 407 b 214 456 217 436 214 451 b 304 478 214 464 204 461 b 472 507 344 485 419 499 b 601 526 590 528 597 528 b 585 397 608 521 603 469 b 219 -21 521 135 367 -42 "},"H":{"ha":575,"x_min":0,"x_max":0,"o":"m 36 821 b 31 892 33 846 32 878 b 43 957 28 947 28 954 b 160 971 65 960 153 971 b 179 885 175 971 174 974 b 188 729 181 843 185 774 b 193 629 190 686 192 640 b 194 601 193 617 194 604 b 197 554 194 599 196 576 b 203 510 199 518 200 511 b 367 457 208 507 365 457 b 388 782 368 458 368 476 b 404 936 397 928 397 933 b 544 926 413 939 542 931 b 544 861 547 922 547 910 b 513 368 542 813 538 765 b 486 -19 488 -26 489 -15 b 399 -21 483 -25 474 -25 b 343 82 329 -15 336 -29 b 356 300 353 225 357 300 b 210 344 351 304 210 347 b 224 85 210 342 218 176 b 175 -14 229 -19 235 -8 b 113 -21 151 -17 124 -19 b 81 63 83 -24 86 -31 b 68 267 76 133 75 167 b 64 354 67 292 65 332 b 60 413 63 376 60 403 b 57 456 60 422 58 442 b 53 526 56 471 54 503 b 47 615 51 551 49 592 b 36 821 43 699 38 776 "},"I":{"ha":242,"x_min":0,"x_max":0,"o":"m 51 226 b 40 653 49 333 43 525 b 35 885 38 781 35 885 b 185 876 36 886 183 878 b 194 550 186 876 190 729 b 204 135 199 371 203 183 b 206 46 206 86 206 47 b 135 36 204 46 172 42 b 61 28 96 32 63 28 b 56 29 58 26 57 28 b 51 226 56 31 53 119 "},"J":{"ha":569,"x_min":0,"x_max":0,"o":"m 260 -26 b 72 114 182 -15 124 29 b 7 288 38 172 -3 276 b 140 324 10 290 131 324 b 157 294 146 324 150 317 b 288 126 192 183 250 108 b 390 546 356 161 404 363 b 350 749 385 618 358 749 b 211 646 349 749 340 742 b 97 578 99 563 107 567 b 19 685 82 594 17 682 b 114 758 19 686 61 718 b 360 946 192 817 331 922 b 428 936 403 978 400 979 b 474 124 563 732 585 344 b 260 -26 422 22 338 -37 "},"K":{"ha":507,"x_min":0,"x_max":0,"o":"m 364 606 b 293 453 342 557 310 488 b 274 382 258 378 260 385 b 489 331 419 351 486 336 b 461 196 492 328 465 201 b 332 215 457 189 450 190 b 219 238 271 228 221 239 b 225 128 219 238 221 188 b 228 -17 232 -10 232 -12 b 168 -21 225 -18 217 -19 b 85 -21 89 -25 89 -25 b 50 572 79 -15 81 -19 b 31 938 33 881 32 917 b 65 968 29 967 29 967 b 178 967 158 972 175 972 b 190 789 181 964 182 939 b 200 615 196 694 200 617 b 243 704 201 615 219 656 b 322 876 265 754 301 831 b 369 964 363 964 363 964 b 494 907 375 964 489 913 b 446 785 500 901 503 908 b 364 606 424 735 386 656 "},"L":{"ha":560,"x_min":0,"x_max":0,"o":"m 568 67 b 361 31 567 60 568 60 b 4 -15 -14 -22 4 -21 b 131 799 4 -11 24 115 b 163 975 161 992 158 971 b 304 958 167 981 296 964 b 246 549 308 954 308 946 b 185 157 213 333 185 158 b 275 169 185 157 225 163 b 551 201 564 211 547 210 b 568 67 554 196 569 72 "},"M":{"ha":738,"x_min":0,"x_max":0,"o":"m 447 282 b 399 125 425 211 404 140 b 311 100 383 72 392 75 b 242 129 242 122 243 121 b 203 335 239 135 203 331 b 201 336 203 336 203 338 b 175 114 201 336 196 289 b 154 18 165 19 164 18 b 21 35 140 18 25 32 b 25 131 14 38 15 44 b 74 553 35 211 44 303 b 114 878 113 900 110 874 b 256 864 118 882 250 871 b 335 444 258 863 335 454 b 363 521 336 435 340 450 b 467 857 394 624 429 735 b 504 972 500 964 500 967 b 644 981 507 975 632 983 b 686 413 654 979 651 1021 b 704 92 693 288 701 143 b 707 -7 710 4 710 -3 b 636 -15 704 -12 703 -12 b 563 -14 563 -19 565 -19 b 550 133 558 -8 558 -6 b 536 389 547 200 540 315 b 528 528 532 461 528 525 b 507 471 528 540 525 535 b 447 282 496 439 469 353 "},"N":{"ha":661,"x_min":0,"x_max":0,"o":"m 132 794 b 253 840 135 799 165 811 b 310 747 274 847 269 857 b 340 667 319 724 332 688 b 385 551 349 646 368 593 b 432 425 400 508 422 453 b 451 375 442 399 451 375 b 454 406 453 374 453 388 b 463 619 458 513 460 579 b 467 739 463 644 465 697 b 471 851 468 779 469 831 b 474 925 472 874 472 907 b 482 969 475 961 476 968 b 608 968 486 972 575 969 b 624 865 628 967 626 971 b 618 746 622 839 619 785 b 614 629 617 706 615 654 b 610 514 614 606 611 554 b 606 397 608 475 607 422 b 597 163 604 351 600 243 b 589 4 592 19 590 4 b 442 -18 586 3 444 -18 b 436 -12 440 -18 438 -15 b 399 85 433 -7 428 8 b 369 163 393 101 379 136 b 326 276 360 188 340 239 b 285 388 313 314 293 364 b 235 521 247 485 235 519 b 233 519 235 521 233 521 b 226 489 232 518 229 504 b 214 428 224 472 218 444 b 200 354 211 411 206 378 b 188 285 196 331 190 300 b 176 231 185 269 179 246 b 147 106 156 115 154 107 b 101 111 144 104 124 107 b 36 122 79 115 50 121 b 6 136 11 126 6 129 b 24 235 6 139 17 196 b 36 300 26 247 32 276 b 68 467 58 419 63 438 b 82 540 71 483 78 517 b 96 618 86 564 93 599 b 111 697 100 638 107 674 b 132 794 124 764 129 789 "},"O":{"ha":590,"x_min":0,"x_max":0,"o":"m 251 971 b 567 476 426 1018 568 796 b 271 -22 567 171 439 -43 b 251 971 -49 19 -65 886 m 308 132 b 408 585 383 175 435 401 b 285 825 389 729 328 847 b 172 474 225 794 172 632 b 308 132 172 289 249 97 "},"P":{"ha":522,"x_min":0,"x_max":0,"o":"m 321 978 b 247 192 607 918 564 457 b 228 172 238 183 228 174 b 235 85 228 171 231 132 b 240 -1 238 38 240 -1 b 92 -22 239 -3 96 -22 b 90 -18 90 -22 90 -19 b 57 433 90 -15 75 188 b 32 901 21 946 24 893 b 321 978 90 956 238 996 m 249 413 b 192 817 425 649 389 903 b 197 594 181 811 179 840 b 207 457 200 561 204 500 b 222 379 214 361 213 368 b 249 413 226 385 239 400 "},"Q":{"ha":636,"x_min":0,"x_max":0,"o":"m 481 943 b 524 203 638 838 657 476 b 538 108 511 178 508 190 b 560 24 565 31 567 28 b 431 -21 554 19 435 -22 b 411 14 425 -21 419 -12 b 403 38 407 26 403 38 b 386 26 401 38 394 32 b 233 -19 340 -8 282 -26 b 65 650 39 4 -40 321 b 481 943 151 914 335 1043 m 343 197 b 335 226 344 199 342 210 b 293 344 331 242 311 294 b 211 575 261 435 221 550 b 197 560 206 592 206 592 b 278 138 138 340 186 90 b 343 197 297 147 335 181 m 440 421 b 425 782 472 554 465 703 b 317 792 396 835 365 838 b 336 674 299 774 296 790 b 422 435 368 585 385 539 b 440 421 436 396 435 397 "},"R":{"ha":547,"x_min":0,"x_max":0,"o":"m 443 490 b 367 392 422 458 396 425 b 353 371 351 376 350 375 b 418 257 354 367 367 346 b 508 81 525 74 518 89 b 396 17 500 75 403 18 b 335 100 386 13 389 8 b 269 211 318 129 289 179 b 235 271 251 243 235 271 b 221 264 235 272 228 268 l 207 254 l 208 203 b 211 93 208 174 210 125 b 210 -12 214 -1 214 -10 b 68 -17 207 -17 72 -21 b 54 271 61 -12 63 -35 b 47 553 51 375 49 463 b 43 679 46 586 44 642 b 39 800 42 715 40 769 b 79 932 36 924 32 913 b 443 490 446 1083 661 822 m 239 478 b 358 801 361 608 413 747 b 206 815 333 826 271 832 l 193 811 l 193 771 b 194 665 193 747 194 701 b 199 525 196 631 197 567 b 201 446 200 482 201 447 b 239 478 203 443 224 463 l 239 478 "},"S":{"ha":510,"x_min":0,"x_max":0,"o":"m 446 971 b 486 904 472 976 467 985 b 497 829 504 828 503 831 b 478 825 496 829 488 826 b 169 619 354 797 213 701 b 281 499 146 571 160 554 b 467 347 394 446 442 407 b 129 -14 531 199 390 49 b 93 -8 94 -22 97 -22 b 56 122 68 75 54 121 b 88 131 56 122 71 126 b 303 231 188 153 260 186 b 204 369 356 283 338 308 b 29 676 24 451 -28 543 b 446 971 82 797 269 931 "},"T":{"ha":551,"x_min":0,"x_max":0,"o":"m 544 969 b 564 836 546 967 564 846 b 458 808 564 825 568 825 b 365 794 407 801 365 794 b 356 396 365 794 361 614 b 342 -25 346 -32 347 -21 b 257 -26 338 -29 344 -29 b 196 -15 199 -25 199 -25 b 197 99 196 -12 196 39 b 213 760 203 329 213 749 b 113 757 213 774 225 774 b 8 750 13 742 13 742 b -10 882 7 756 -10 869 b 263 932 -10 892 -19 890 b 544 969 524 972 540 974 "},"U":{"ha":617,"x_min":0,"x_max":0,"o":"m 563 964 b 588 610 581 901 593 719 b 271 -28 568 214 439 -47 b 29 561 122 -10 29 219 b 79 931 29 721 58 931 b 213 900 88 931 210 901 b 208 846 217 896 215 883 b 263 149 156 593 181 267 b 328 163 286 115 297 118 b 418 908 424 307 465 649 b 415 936 417 924 414 935 b 563 964 421 942 561 967 "},"V":{"ha":532,"x_min":0,"x_max":0,"o":"m 119 294 b 67 550 104 372 81 488 b 8 872 0 874 1 868 b 57 885 11 874 33 879 b 122 899 82 890 111 896 b 178 771 153 906 147 921 b 256 388 219 561 256 389 b 261 404 256 381 258 389 b 340 769 271 447 325 697 b 371 907 350 814 364 875 b 392 971 382 963 385 968 b 528 943 396 972 525 946 b 529 917 532 939 532 932 b 513 842 528 911 519 876 b 483 708 504 806 492 746 b 458 592 475 671 464 618 b 406 350 442 519 424 431 b 369 185 397 311 381 238 b 322 -21 333 19 325 -17 b 247 -10 318 -25 315 -25 b 182 7 204 0 185 4 b 119 294 178 11 179 1 "},"W":{"ha":739,"x_min":0,"x_max":0,"o":"m 401 510 b 371 422 401 521 396 504 b 314 236 354 371 329 288 b 263 69 297 185 275 110 b 232 -18 239 -3 235 -15 b 172 -22 231 -19 204 -21 b 107 -26 142 -24 111 -25 b 93 -26 101 -26 94 -26 b 56 483 83 -24 85 -47 b 38 789 50 560 43 696 b 35 967 26 965 26 963 b 165 974 39 967 147 974 b 182 908 178 974 178 972 b 210 426 196 671 210 432 b 211 422 210 422 210 421 b 339 831 213 425 311 740 b 357 875 349 865 353 874 b 493 833 361 875 489 836 b 528 658 497 829 496 836 b 535 619 532 639 535 621 b 536 618 535 618 535 618 b 561 833 536 619 543 674 b 583 936 572 935 574 936 b 713 922 594 936 706 924 b 710 794 724 918 724 921 b 638 164 699 700 668 435 b 615 75 626 72 628 75 b 481 90 599 75 483 89 b 401 510 479 93 401 501 "},"X":{"ha":590,"x_min":0,"x_max":0,"o":"m 6 132 b 156 399 1 138 -11 115 l 201 478 l 168 557 b 18 911 7 925 15 906 b 147 968 21 915 140 968 b 164 946 153 968 157 961 b 296 642 171 926 294 644 b 325 688 297 642 310 663 b 468 922 464 928 461 922 b 586 854 472 922 579 860 b 406 526 593 847 608 872 l 371 468 l 400 403 b 544 26 581 -11 563 35 b 421 -18 454 -14 426 -25 b 331 183 418 -15 414 -7 b 276 306 301 250 278 306 b 210 193 276 306 246 254 b 126 60 131 57 133 60 b 6 132 121 60 10 125 "},"Y":{"ha":539,"x_min":0,"x_max":0,"o":"m 136 886 b 168 804 142 885 144 879 b 256 533 217 653 254 533 b 308 683 256 532 260 542 b 365 853 333 758 360 835 b 389 924 372 872 383 903 b 413 971 401 960 407 969 b 544 926 417 972 542 929 b 504 792 549 922 546 913 b 389 454 457 654 456 651 b 263 82 321 256 290 167 b 217 -25 224 -32 226 -25 b 150 -4 214 -25 185 -15 b 85 29 85 18 83 18 b 129 163 86 33 106 93 b 172 290 153 231 172 289 b 28 747 172 293 142 388 b 4 846 0 833 -1 842 b 136 886 8 850 132 888 "},"Z":{"ha":589,"x_min":0,"x_max":0,"o":"m 543 69 b 447 43 543 60 540 60 b 197 0 400 35 288 15 b 13 -26 32 -29 17 -31 b -10 107 10 -24 -11 100 b 38 182 -10 110 8 138 b 169 376 64 221 124 308 b 317 597 215 446 282 544 b 381 694 351 650 381 693 b 317 739 381 696 354 715 b 154 857 140 854 150 847 b 228 965 156 863 222 960 b 315 919 233 972 233 972 b 443 836 351 896 408 858 b 583 726 599 735 590 740 b 493 589 582 724 540 661 b 318 328 444 517 365 400 b 215 176 269 257 224 188 b 203 153 208 164 201 154 b 350 178 203 153 269 164 b 519 201 525 208 514 207 b 543 69 522 197 543 85 "},"[":{"ha":358,"x_min":0,"x_max":0,"o":"m 311 136 b 319 76 313 126 317 100 b 322 11 328 8 326 14 b 121 -12 317 8 314 7 b 49 -19 83 -17 51 -19 b 44 38 44 -19 44 -19 l 44 38 b 57 392 47 132 50 229 b 68 638 58 424 64 535 b 88 979 83 997 82 978 b 308 982 92 981 303 983 b 321 928 315 981 317 975 b 325 869 322 903 325 876 b 246 846 328 844 333 846 l 204 846 l 203 806 b 201 747 203 783 201 757 b 199 665 200 738 199 701 b 196 578 197 631 196 592 b 193 497 194 565 194 529 b 189 386 192 465 190 415 b 186 276 189 357 188 307 b 183 186 185 246 183 206 b 189 153 182 151 182 151 b 292 163 206 156 283 163 b 311 136 307 163 308 160 "},"\\":{"ha":499,"x_min":0,"x_max":0,"o":"m 429 21 b 371 -6 431 8 431 8 b 293 -21 296 -24 297 -24 b 272 58 289 -18 288 -11 b 228 249 264 90 244 175 b 69 936 72 917 69 932 b 138 961 69 944 74 946 b 210 967 206 976 206 976 b 342 401 211 963 268 717 b 390 186 349 369 371 274 b 429 21 411 100 428 25 "},"]":{"ha":358,"x_min":0,"x_max":0,"o":"m 311 976 b 301 590 315 974 310 765 b 290 343 300 569 296 458 b 268 -24 274 -53 276 -22 b 44 -22 254 -28 49 -26 b 38 22 40 -18 40 -18 b 31 93 35 51 32 81 b 131 111 29 110 38 111 b 157 219 157 111 153 97 b 167 533 160 321 164 447 b 169 646 167 564 169 614 b 174 754 171 678 172 726 b 174 804 174 781 175 803 b 119 799 174 804 150 801 b 42 854 42 790 50 785 b 33 918 38 883 35 911 b 99 956 29 950 25 947 b 311 976 257 972 310 976 "},"^":{"ha":954,"x_min":0,"x_max":0,"o":"m 840 433 b 885 356 863 393 883 358 b 758 283 888 350 764 279 b 725 339 757 285 742 310 b 479 765 658 453 481 763 b 275 419 476 768 485 783 b 188 278 199 286 193 276 b 129 310 186 278 160 292 b 71 356 68 346 67 347 b 356 851 72 361 250 669 b 400 929 364 867 383 901 b 442 986 433 988 433 988 b 561 915 451 985 556 922 b 682 707 564 911 618 817 b 840 433 746 596 817 472 "},"_":{"ha":644,"x_min":0,"x_max":0,"o":"m 613 133 b 614 61 614 131 614 99 l 613 -6 l 457 -6 b 167 -6 372 -6 242 -6 l 32 -6 l 31 67 b 31 140 31 107 31 139 b 613 133 36 146 613 139 "},"`":{"ha":251,"x_min":0,"x_max":0,"o":"m 151 968 b 215 933 222 954 222 954 b 194 822 214 931 204 881 b 171 714 182 760 172 717 b 97 721 167 708 167 708 b 32 743 36 733 32 733 b 76 974 32 750 74 968 b 151 968 79 981 85 981 "},"a":{"ha":617,"x_min":0,"x_max":0,"o":"m 110 -25 b -8 24 -14 14 -10 13 b 286 964 -6 32 283 956 b 292 971 288 967 290 969 b 422 931 294 971 415 935 b 489 638 426 929 426 929 b 582 204 521 486 563 292 b 611 28 618 35 618 32 b 478 1 603 24 481 0 b 447 122 472 6 471 13 b 422 233 435 182 424 232 b 306 194 422 233 369 217 l 189 156 l 168 92 b 110 -25 126 -43 132 -32 m 247 342 b 244 332 244 336 244 332 b 318 356 244 332 278 342 b 392 381 358 369 392 381 b 339 629 392 382 340 625 b 322 585 338 631 331 610 b 247 342 311 547 260 385 "},"b":{"ha":590,"x_min":0,"x_max":0,"o":"m 144 -19 b 32 15 99 -14 40 4 b 63 651 26 21 26 18 b 71 804 65 701 69 769 b 97 899 76 889 75 882 b 450 914 219 989 369 996 b 400 561 540 825 519 674 b 390 550 394 556 390 551 b 411 540 390 550 400 546 b 532 144 574 463 626 289 b 144 -19 456 29 293 -40 m 211 621 b 229 622 210 611 208 611 b 335 817 329 674 392 790 b 222 801 313 826 238 817 b 217 714 221 800 219 769 b 211 621 214 668 211 625 m 188 219 b 188 128 182 124 182 129 b 192 126 189 128 192 126 b 217 128 193 126 204 128 b 324 413 431 144 510 354 b 200 418 289 424 208 426 b 196 357 200 418 197 390 b 188 219 194 324 190 263 "},"c":{"ha":542,"x_min":0,"x_max":0,"o":"m 243 -24 b 19 390 101 -7 14 154 b 294 957 26 654 144 899 b 535 879 382 992 481 960 b 497 826 547 860 549 861 b 415 788 422 775 425 776 b 313 793 381 832 356 833 b 218 156 175 665 121 303 b 383 236 258 94 321 125 b 460 236 403 269 394 269 b 515 164 542 194 538 201 b 243 -24 443 35 342 -35 "},"d":{"ha":564,"x_min":0,"x_max":0,"o":"m 32 842 b 31 893 32 851 31 874 l 29 928 l 43 935 b 543 589 364 1096 611 924 b 115 -11 499 374 325 129 b 89 -28 99 -22 90 -28 b 86 -15 88 -28 88 -22 b 82 56 86 -8 83 24 b 76 153 81 88 78 131 b 32 842 72 204 33 821 m 254 846 b 182 821 201 840 181 833 b 193 657 183 814 188 742 b 210 394 199 574 206 456 b 217 282 214 335 217 283 b 236 303 217 279 219 282 b 254 846 454 578 464 867 "},"e":{"ha":524,"x_min":0,"x_max":0,"o":"m 188 -22 b 31 397 68 -8 10 144 b 69 692 39 499 50 590 b 76 729 72 707 75 724 b 97 831 78 739 90 804 b 124 947 101 850 118 924 b 340 949 132 982 107 982 b 443 933 365 944 413 938 b 510 903 514 924 514 924 b 501 840 508 897 506 869 b 492 783 497 810 493 785 b 379 792 488 776 486 776 b 243 803 232 814 244 813 b 233 754 243 800 239 778 b 208 625 226 718 218 674 b 196 539 204 594 200 569 b 192 514 194 528 193 517 b 192 510 192 511 192 510 b 306 565 193 510 238 531 b 393 603 386 604 388 604 b 450 496 397 603 421 558 b 381 435 460 472 464 476 b 199 346 254 372 218 356 l 178 336 l 178 286 b 215 129 178 188 194 121 b 388 314 254 144 319 215 b 399 331 393 322 399 329 b 506 224 401 331 506 225 b 485 193 506 222 497 208 b 188 -22 369 36 275 -32 "},"f":{"ha":476,"x_min":0,"x_max":0,"o":"m 107 -10 b 21 961 103 14 24 908 b 132 964 21 975 10 975 b 483 924 513 928 481 931 b 469 788 485 915 472 792 b 317 796 465 782 465 782 b 185 808 246 803 188 808 b 203 582 182 808 199 585 b 254 600 203 582 226 590 b 326 618 322 626 322 626 b 372 494 332 608 372 499 b 275 449 372 485 376 488 b 217 421 215 426 215 426 b 254 -1 218 408 254 7 b 188 -18 254 -12 254 -12 b 111 -19 117 -24 114 -24 b 107 -10 110 -18 107 -14 "},"g":{"ha":614,"x_min":0,"x_max":0,"o":"m 219 -21 b 111 732 7 10 -50 404 b 393 971 188 888 294 971 b 567 843 461 971 524 929 b 510 783 582 813 585 815 b 446 760 472 767 456 760 b 429 779 438 760 436 767 b 385 817 417 804 403 817 b 322 779 368 817 349 804 b 190 192 200 656 133 354 b 244 132 206 151 222 132 b 307 168 261 132 282 143 b 407 346 347 208 429 353 b 246 319 400 344 251 319 b 229 361 236 319 235 322 b 219 422 226 379 221 407 b 214 456 217 436 214 451 b 304 478 214 464 204 461 b 472 507 344 485 419 499 b 601 526 590 528 597 528 b 585 397 608 521 603 469 b 219 -21 521 135 367 -42 "},"h":{"ha":575,"x_min":0,"x_max":0,"o":"m 36 821 b 31 892 33 846 32 878 b 43 957 28 947 28 954 b 161 971 65 960 153 971 b 179 885 175 971 174 974 b 188 729 181 843 185 774 b 193 629 190 686 193 640 b 203 510 193 606 199 513 b 367 458 208 507 365 457 b 388 782 368 458 368 476 b 404 936 397 928 397 933 b 544 926 413 939 542 931 b 544 861 547 922 547 910 b 513 368 542 813 538 765 b 486 -19 488 -26 489 -15 b 399 -21 483 -25 474 -25 b 343 82 329 -15 336 -29 b 357 300 353 225 357 300 b 210 344 353 304 210 347 b 224 85 210 342 218 178 b 175 -14 229 -19 235 -8 b 114 -21 151 -17 124 -19 b 81 63 83 -24 86 -31 b 68 268 76 133 75 167 b 64 354 67 293 65 332 b 60 413 63 376 61 403 b 57 457 60 422 58 442 b 53 528 57 471 54 503 b 47 615 51 551 49 592 b 36 821 43 699 38 776 "},"i":{"ha":242,"x_min":0,"x_max":0,"o":"m 51 226 b 40 653 49 333 43 525 b 35 885 38 781 35 885 b 185 878 36 886 183 878 b 194 550 186 876 190 729 b 204 135 199 371 203 183 b 206 46 206 88 206 47 b 135 36 204 46 172 42 b 61 28 96 32 63 28 b 57 29 58 26 57 28 b 51 226 56 31 53 119 "},"j":{"ha":569,"x_min":0,"x_max":0,"o":"m 260 -26 b 72 114 182 -15 124 29 b 7 288 38 172 -3 276 b 140 324 10 290 131 324 b 157 294 146 324 150 317 b 288 126 192 183 250 108 b 390 546 356 161 404 363 b 350 749 385 618 358 749 b 211 646 349 749 340 742 b 97 578 99 563 107 567 b 19 685 82 594 17 682 b 114 758 19 686 61 718 b 360 946 192 817 331 922 b 428 936 403 978 400 979 b 474 124 563 732 585 344 b 260 -26 422 22 338 -37 "},"k":{"ha":507,"x_min":0,"x_max":0,"o":"m 364 606 b 293 453 342 557 310 488 b 274 382 258 378 260 385 b 489 331 419 351 486 336 b 461 196 492 328 465 201 b 332 215 457 189 450 190 b 219 238 271 228 221 239 b 225 128 219 238 221 188 b 228 -17 232 -10 232 -12 b 168 -21 225 -18 217 -19 b 85 -21 89 -25 89 -25 b 50 572 79 -15 81 -19 b 31 938 33 881 32 917 b 65 968 29 967 29 967 b 178 967 158 972 175 972 b 190 789 181 964 182 939 b 200 615 196 694 200 617 b 243 704 201 615 219 656 b 322 876 265 754 301 831 b 369 964 363 964 363 964 b 494 907 375 964 489 913 b 446 785 500 901 503 908 b 364 606 424 735 386 656 "},"l":{"ha":560,"x_min":0,"x_max":0,"o":"m 568 67 b 361 31 567 60 568 60 b 4 -15 -14 -22 4 -21 b 131 799 4 -11 24 115 b 163 975 161 992 158 971 b 304 958 167 981 296 964 b 246 549 308 954 308 946 b 185 157 213 333 185 158 b 275 169 185 157 225 163 b 551 201 564 211 547 210 b 568 67 554 196 569 72 "},"m":{"ha":738,"x_min":0,"x_max":0,"o":"m 447 282 b 399 125 425 211 404 140 b 311 100 383 72 392 75 b 242 129 242 122 243 121 b 203 335 239 135 203 331 b 201 336 203 336 203 338 b 175 114 201 336 196 289 b 154 18 165 19 164 18 b 21 35 140 18 25 32 b 25 131 14 38 15 44 b 74 553 35 211 44 303 b 114 878 113 900 110 874 b 256 864 118 882 250 871 b 335 444 258 863 335 454 b 363 521 336 435 340 450 b 467 857 394 624 429 735 b 504 972 500 964 500 967 b 644 981 507 975 632 983 b 686 413 654 979 651 1021 b 704 92 693 288 701 143 b 707 -7 710 4 710 -3 b 636 -15 704 -12 703 -12 b 563 -14 563 -19 565 -19 b 550 133 558 -8 558 -6 b 536 389 547 200 540 315 b 528 528 532 461 528 525 b 507 471 528 540 525 535 b 447 282 496 439 469 353 "},"n":{"ha":661,"x_min":0,"x_max":0,"o":"m 132 794 b 253 840 135 799 165 811 b 310 747 275 847 269 857 b 340 667 319 724 333 688 b 432 425 372 588 404 506 b 451 375 442 399 451 375 b 454 406 453 374 453 388 b 463 619 458 513 461 579 b 467 739 463 644 465 699 b 471 851 468 779 469 831 b 474 925 472 874 474 907 b 482 971 475 961 476 968 b 608 968 486 972 575 969 b 624 867 628 967 628 971 b 618 746 622 839 619 785 b 614 631 617 706 615 654 b 610 514 614 606 611 554 b 606 397 608 475 607 422 b 597 163 604 351 600 243 b 589 4 592 19 590 4 b 442 -18 586 3 444 -18 b 436 -12 440 -18 438 -15 b 399 85 433 -7 428 8 b 369 163 393 101 379 136 b 285 388 340 238 311 313 b 235 521 247 485 235 519 b 215 428 231 517 217 436 b 200 354 211 411 206 378 b 188 285 196 331 190 300 b 178 231 185 269 179 246 b 147 106 156 115 154 107 b 101 111 144 104 125 107 b 36 122 79 115 50 121 b 6 136 11 126 6 129 b 24 236 6 139 17 196 b 36 300 26 247 32 276 b 68 467 58 419 63 438 b 97 618 76 517 86 568 b 132 794 101 647 125 781 "},"o":{"ha":590,"x_min":0,"x_max":0,"o":"m 251 971 b 567 476 426 1018 568 796 b 271 -22 567 171 439 -43 b 251 971 -49 19 -65 886 m 308 132 b 408 585 383 175 435 401 b 285 825 389 729 328 847 b 172 474 225 794 172 632 b 308 132 172 289 249 97 "},"p":{"ha":522,"x_min":0,"x_max":0,"o":"m 321 978 b 247 192 607 918 564 457 b 228 172 238 183 228 174 b 235 85 228 171 231 132 b 240 -1 238 38 240 -1 b 92 -22 239 -3 96 -22 b 90 -18 90 -22 90 -19 b 57 433 90 -15 75 188 b 32 901 21 946 24 893 b 275 982 81 947 192 982 b 321 978 292 982 307 981 m 249 413 b 264 833 401 617 394 833 b 192 817 243 833 218 828 b 197 594 181 811 179 840 b 207 458 200 561 204 500 b 217 374 213 389 213 374 b 222 379 218 374 219 376 b 249 413 226 385 239 400 "},"q":{"ha":638,"x_min":0,"x_max":0,"o":"m 482 943 b 525 203 639 838 658 476 b 539 108 513 178 510 190 b 561 24 567 31 568 28 b 432 -21 556 19 436 -22 b 413 14 426 -21 421 -12 b 404 38 408 26 404 38 b 388 26 403 38 396 32 b 235 -19 342 -8 283 -26 b 67 650 40 4 -39 321 b 482 943 153 914 336 1043 m 344 197 b 336 226 346 199 343 210 b 294 344 332 242 313 294 b 213 575 263 435 222 550 b 199 560 207 592 207 592 b 279 138 139 340 188 90 b 344 197 299 147 336 181 m 442 421 b 426 782 474 554 467 703 b 318 792 397 835 367 838 b 338 674 300 774 297 790 b 424 435 369 585 386 539 b 442 421 438 396 436 397 "},"r":{"ha":549,"x_min":0,"x_max":0,"o":"m 443 490 b 367 393 422 458 396 425 b 353 371 351 376 351 375 b 418 257 354 367 367 346 b 508 81 526 74 518 89 b 396 17 500 75 403 18 b 335 100 386 13 389 8 b 269 211 318 129 289 179 b 235 271 251 243 235 271 b 221 264 235 272 228 268 l 207 254 l 208 203 b 211 93 208 174 210 125 b 210 -12 214 -1 214 -10 b 68 -17 207 -17 72 -21 b 54 271 61 -12 63 -35 b 47 553 51 375 50 463 b 43 679 46 586 44 642 b 40 800 42 715 40 769 b 79 932 36 925 32 913 b 279 976 153 963 219 976 b 443 490 515 976 618 756 m 239 478 b 358 801 361 610 413 747 b 278 825 343 817 314 825 b 206 815 256 825 231 822 l 193 811 l 193 771 b 194 665 193 749 194 701 b 199 525 196 631 197 567 b 201 446 200 482 201 447 b 239 478 203 443 224 463 "},"s":{"ha":511,"x_min":0,"x_max":0,"o":"m 447 971 b 488 904 474 976 468 985 b 499 829 506 828 504 831 b 479 825 497 829 489 826 b 171 619 356 797 214 701 b 282 499 147 571 161 554 b 468 347 396 446 443 407 b 131 -14 532 199 392 49 b 94 -8 96 -22 99 -22 b 57 122 69 75 56 121 b 89 131 57 122 72 126 b 304 231 189 153 261 186 b 206 369 357 283 339 308 b 31 676 25 451 -26 543 b 447 971 83 797 271 931 "},"t":{"ha":551,"x_min":0,"x_max":0,"o":"m 544 969 b 564 836 546 967 564 846 b 458 808 564 825 568 825 b 365 794 407 801 365 794 b 356 396 365 794 361 615 b 342 -25 346 -32 347 -21 b 257 -26 338 -29 344 -29 b 196 -15 199 -25 199 -25 b 197 99 196 -12 196 39 b 213 760 203 329 213 750 b 206 769 213 767 215 769 b 113 757 196 769 171 765 b 19 744 56 749 31 744 b 8 750 11 744 10 746 b -10 882 7 756 -10 871 b 264 932 -10 892 -19 890 b 544 969 524 972 540 974 "},"u":{"ha":617,"x_min":0,"x_max":0,"o":"m 563 964 b 588 610 581 901 593 719 b 271 -28 568 214 439 -47 b 29 561 122 -10 29 219 b 79 931 29 721 58 931 b 213 900 88 931 210 901 b 208 846 217 896 215 883 b 263 149 156 593 181 267 b 328 163 286 115 297 118 b 418 908 424 307 465 649 b 415 936 417 924 414 935 b 563 964 421 942 561 967 "},"v":{"ha":532,"x_min":0,"x_max":0,"o":"m 119 294 b 67 550 104 372 81 488 b 8 872 0 874 1 868 b 57 885 11 874 33 879 b 122 899 82 890 111 896 b 178 771 153 906 147 921 b 256 388 219 561 256 389 b 261 404 256 381 258 389 b 340 769 271 447 325 697 b 371 907 350 814 364 875 b 392 971 382 963 385 968 b 528 943 396 972 525 946 b 529 917 532 939 532 932 b 513 842 528 911 519 876 b 483 708 504 806 492 746 b 458 592 475 671 464 618 b 406 350 442 519 424 431 b 369 185 397 311 381 238 b 322 -21 333 19 325 -17 b 247 -10 318 -25 315 -25 b 182 7 204 0 185 4 b 119 294 178 11 179 1 "},"w":{"ha":739,"x_min":0,"x_max":0,"o":"m 401 510 b 371 422 401 521 396 504 b 314 236 354 371 329 288 b 263 69 297 185 275 110 b 232 -18 239 -3 235 -15 b 172 -22 231 -19 204 -21 b 107 -26 142 -24 111 -25 b 93 -26 101 -26 94 -26 b 56 483 83 -24 85 -47 b 38 789 50 560 43 696 b 35 967 26 965 26 963 b 165 974 39 967 147 974 b 182 908 178 974 178 972 b 210 426 196 671 210 432 b 211 422 210 422 210 421 b 339 831 213 425 311 740 b 357 875 349 865 353 874 b 493 833 361 875 489 836 b 528 658 497 829 496 836 b 535 619 532 639 535 621 b 536 618 535 618 535 618 b 561 833 536 619 543 674 b 583 936 572 935 574 936 b 713 922 594 936 706 924 b 710 794 724 918 724 921 b 638 164 699 700 668 435 b 615 75 626 72 628 75 b 481 90 599 75 483 89 b 401 510 479 93 401 501 "},"x":{"ha":590,"x_min":0,"x_max":0,"o":"m 6 132 b 156 399 1 138 -11 115 l 201 478 l 168 557 b 18 911 7 925 15 906 b 147 968 21 915 140 968 b 164 946 153 968 157 961 b 296 642 171 926 294 644 b 325 688 297 642 310 663 b 468 922 464 928 461 922 b 586 854 472 922 579 860 b 406 526 593 847 608 872 l 371 468 l 400 403 b 544 26 581 -11 563 35 b 421 -18 454 -14 426 -25 b 331 183 418 -15 414 -7 b 276 306 301 250 278 306 b 210 193 276 306 246 254 b 126 60 131 57 133 60 b 6 132 121 60 10 125 "},"y":{"ha":539,"x_min":0,"x_max":0,"o":"m 136 886 b 168 804 143 885 144 879 b 256 533 217 653 254 533 b 308 683 256 532 260 542 b 365 854 333 758 360 835 b 389 924 372 872 383 903 b 413 971 401 960 407 971 b 544 926 417 972 542 931 b 504 792 549 922 546 913 b 389 454 457 654 457 651 b 263 82 321 256 292 167 b 217 -25 224 -32 226 -25 b 150 -4 214 -25 185 -15 b 86 29 85 18 83 18 b 129 163 86 33 106 93 b 172 290 153 231 172 289 b 28 747 172 293 142 388 b 4 846 0 835 -1 842 b 136 886 8 850 132 888 "},"z":{"ha":589,"x_min":0,"x_max":0,"o":"m 543 69 b 447 43 543 60 540 60 b 197 0 400 35 288 15 b 13 -26 32 -29 17 -31 b -10 107 10 -24 -11 100 b 38 182 -10 110 8 138 b 169 376 64 221 124 308 b 317 597 215 446 282 544 b 381 694 351 650 381 693 b 317 739 381 696 354 715 b 154 857 140 854 150 847 b 228 965 156 863 222 960 b 315 919 233 972 233 972 b 443 836 351 896 408 858 b 583 726 599 735 590 740 b 493 589 582 724 540 661 b 318 328 444 517 365 400 b 215 176 269 257 224 188 b 203 153 208 164 201 154 b 350 178 203 153 269 164 b 519 201 525 208 514 207 b 543 69 522 197 543 85 "},"{":{"ha":382,"x_min":0,"x_max":0,"o":"m 314 975 b 344 942 353 976 351 979 b 340 907 343 932 342 917 b 335 874 338 897 336 882 b 331 850 333 865 332 854 b 326 839 331 842 329 840 b 300 799 318 836 308 821 b 296 717 296 789 296 786 b 224 492 296 594 282 553 l 204 472 l 213 454 b 243 250 233 406 242 361 b 283 122 246 140 254 114 b 290 124 288 124 290 124 b 317 24 292 122 311 47 b 322 1 318 15 321 6 b 315 -12 326 -8 325 -10 b 246 -18 292 -18 268 -19 b 128 61 194 -12 151 15 b 96 261 106 104 99 144 b 47 419 92 381 86 400 b 29 483 31 428 32 424 b 38 539 26 538 26 538 b 124 593 61 543 104 571 b 150 746 149 624 151 639 b 314 975 149 878 214 969 "},"|":{"ha":244,"x_min":0,"x_max":0,"o":"m 192 1110 b 192 -24 194 1104 196 -18 b 54 -24 189 -28 60 -28 b 49 788 50 -21 49 172 b 54 1113 49 1096 49 1110 b 192 1110 61 1117 189 1114 "},"}":{"ha":382,"x_min":0,"x_max":0,"o":"m 351 474 b 344 421 354 421 354 422 b 258 367 319 415 276 389 b 231 213 232 336 229 321 b 96 -12 232 96 182 11 b 35 -15 85 -15 43 -17 b 36 18 31 -14 31 -15 b 42 51 38 26 40 42 b 46 85 43 63 44 76 b 50 110 47 93 50 104 b 56 119 51 117 51 119 b 82 160 63 124 72 139 b 85 243 85 169 85 174 b 160 469 85 365 100 410 l 178 488 l 169 504 b 138 710 147 550 140 597 b 97 838 135 819 126 844 b 90 836 94 836 90 836 b 64 935 89 836 69 913 b 58 958 63 943 60 953 b 65 971 56 968 56 969 b 254 894 150 992 221 963 b 285 694 275 853 282 813 b 335 539 289 578 294 558 b 351 474 350 532 349 536 "},"~":{"ha":701,"x_min":0,"x_max":0,"o":"m 651 521 b 667 493 678 513 678 514 b 449 381 625 411 542 369 b 297 428 406 386 360 400 b 160 401 224 460 185 453 b 144 393 153 388 153 389 b 53 442 138 397 97 419 b 36 478 22 458 24 457 b 358 560 101 593 217 622 b 533 551 458 515 510 513 b 550 553 536 557 536 557 b 621 531 567 547 606 535 b 651 521 628 528 642 524 "}," ":{"ha":339,"x_min":0,"x_max":0,"o":""},"¡":{"ha":242,"x_min":0,"x_max":0,"o":"m 58 822 b 50 894 50 824 50 825 b 57 972 49 968 49 969 b 183 972 63 974 174 975 b 194 896 193 971 194 968 b 192 826 194 836 194 831 b 58 822 189 824 76 821 m 118 774 b 190 767 182 774 188 774 b 190 -14 194 756 194 -10 b 53 -15 186 -19 58 -21 b 49 768 49 -10 44 758 b 118 774 51 774 51 774 "},"¢":{"ha":467,"x_min":0,"x_max":0,"o":"m 347 278 b 403 233 371 288 367 290 b 433 169 439 175 438 176 b 351 138 425 160 382 143 l 340 135 l 340 67 b 336 -4 340 -1 340 -1 b 244 -6 331 -8 338 -8 b 197 -4 219 -6 199 -6 b 194 85 194 0 194 15 l 194 163 l 176 175 b 122 743 11 285 -17 572 b 189 804 139 764 172 794 b 196 893 194 807 194 807 b 200 982 197 963 199 978 b 338 983 203 986 332 988 b 342 914 342 981 342 978 l 343 846 l 356 844 b 438 813 394 840 438 824 b 378 694 438 808 382 700 b 353 696 375 690 368 692 b 210 357 232 735 139 511 b 347 278 242 288 294 257 "},"£":{"ha":653,"x_min":0,"x_max":0,"o":"m 338 139 b 615 133 542 139 613 136 b 613 -6 619 128 617 0 b 304 -8 608 -10 621 -10 b 31 1 22 -7 33 -7 b 35 136 28 14 31 133 b 74 139 38 139 46 139 l 110 139 l 111 153 b 129 343 117 242 124 317 b 103 342 131 349 131 349 b 58 340 68 333 63 333 b 29 469 54 350 28 465 b 101 493 31 475 39 476 b 158 507 133 500 158 507 b 165 528 160 507 163 517 b 546 988 238 808 374 972 b 618 979 585 990 621 986 b 603 913 618 978 611 947 b 574 842 585 833 588 842 b 331 571 479 844 390 746 b 325 549 324 554 324 549 b 422 572 326 549 369 558 b 531 592 522 597 526 597 b 561 461 535 585 563 467 b 311 393 560 454 558 454 b 275 329 281 386 285 394 b 258 156 268 276 264 232 l 257 139 l 338 139 "},"¥":{"ha":664,"x_min":0,"x_max":0,"o":"m 582 801 b 478 578 550 733 504 633 b 432 476 453 522 432 478 b 489 483 433 476 458 479 b 556 483 549 490 553 490 b 563 425 556 481 558 454 b 569 361 565 394 568 367 b 567 349 569 354 569 351 b 481 335 563 344 567 346 b 404 317 396 324 404 325 b 468 317 404 308 397 308 b 546 322 532 325 543 325 b 561 186 550 318 564 192 b 482 171 558 181 553 179 b 410 163 446 167 414 163 b 404 85 404 161 404 161 b 396 -3 404 6 403 0 b 265 -3 393 -4 274 -4 l 265 -3 b 257 74 257 -1 257 -1 b 251 143 257 144 257 144 b 115 128 233 139 118 126 b 100 199 107 129 107 131 b 97 269 92 264 92 267 b 256 290 100 271 249 290 b 257 297 257 290 257 294 b 188 297 257 307 263 307 b 117 296 125 289 121 289 b 101 428 115 300 100 424 b 219 449 104 433 114 436 b 214 515 246 451 247 443 b 25 939 -1 976 18 933 b 142 994 28 942 131 990 b 201 888 150 997 149 1001 b 318 636 285 710 307 660 b 331 613 325 622 331 613 b 361 675 332 613 346 640 b 444 851 378 710 415 789 b 503 978 472 914 500 971 b 521 994 510 992 515 996 b 638 939 532 990 635 942 b 582 801 644 933 644 936 "},"©":{"ha":756,"x_min":0,"x_max":0,"o":"m 231 917 b 717 500 460 1089 717 871 b 335 -21 717 193 544 -43 b 231 917 1 14 -74 689 m 393 129 b 488 776 575 190 633 603 b 189 524 378 906 221 772 b 393 129 161 300 271 88 m 432 428 b 471 444 438 453 435 451 b 504 421 510 438 508 438 b 342 256 482 311 410 238 b 282 607 244 282 213 471 b 472 653 331 701 419 722 b 453 608 490 629 492 631 b 414 610 424 592 428 592 b 361 597 399 628 382 624 b 349 333 310 528 303 379 b 432 428 372 308 413 354 "},"­":{"ha":0,"x_min":0,"x_max":0,"o":""},"®":{"ha":494,"x_min":0,"x_max":0,"o":"m 301 654 b 335 632 319 643 335 633 b 315 600 335 629 317 600 b 268 628 314 600 293 613 b 222 654 243 643 222 654 b 218 625 221 654 219 640 b 194 596 214 592 215 594 b 176 599 186 597 178 599 b 183 679 176 600 179 636 b 176 753 193 769 194 763 b 150 761 160 744 161 743 b 167 792 139 779 138 778 b 265 688 307 858 404 758 b 261 678 254 682 254 682 b 301 654 264 676 283 665 m 250 725 l 250 725 b 253 775 303 753 304 778 b 231 750 232 774 233 776 b 228 721 229 738 228 725 b 250 725 226 713 228 713 m 447 808 b 199 421 496 597 358 382 b 96 899 39 461 -18 726 b 375 946 168 1007 292 1028 b 408 904 386 935 408 907 b 411 900 408 903 410 901 b 447 808 421 889 440 839 m 258 500 b 364 808 349 526 403 686 b 129 782 315 963 179 946 b 258 500 85 635 160 471 "},"¿":{"ha":561,"x_min":0,"x_max":0,"o":"m 432 783 b 335 871 426 786 336 867 b 379 931 332 876 332 878 b 429 978 419 976 424 981 b 529 889 436 975 528 892 b 438 782 531 881 444 781 b 432 783 436 782 433 782 m 483 299 b 510 219 544 251 542 260 b 143 -22 372 49 239 -39 b 183 569 -33 7 -14 271 b 385 794 254 676 368 804 b 461 708 386 793 431 743 b 435 650 476 690 478 693 b 167 138 285 500 154 251 b 179 124 168 121 168 121 b 400 317 232 136 325 218 b 483 299 424 347 417 349 "},"À":{"ha":617,"x_min":0,"x_max":0,"o":"m 357 1083 b 231 1225 353 1085 246 1207 b 257 1261 225 1232 225 1232 b 318 1267 299 1297 292 1297 b 426 1139 433 1135 428 1142 b 361 1079 425 1135 364 1079 b 357 1083 361 1079 358 1081 m 582 204 b 611 28 618 35 618 32 b 478 1 603 24 481 0 b 447 122 472 6 471 13 b 422 233 435 182 424 232 b 306 194 422 233 369 215 l 189 156 l 168 92 b 110 -25 126 -43 132 -32 b -8 24 -14 14 -10 13 b 286 964 -6 32 282 956 b 292 971 288 967 290 969 b 422 931 294 971 414 935 b 489 638 426 929 426 929 b 582 204 521 486 563 292 m 318 356 b 392 381 358 369 390 381 b 339 629 392 381 340 625 b 322 585 338 631 331 610 b 247 342 311 547 260 385 b 244 331 244 336 244 331 b 318 356 244 331 278 342 "},"Á":{"ha":617,"x_min":0,"x_max":0,"o":"m 396 1081 b 335 1138 385 1090 336 1135 b 401 1218 335 1142 335 1142 b 471 1289 465 1290 467 1292 b 535 1232 478 1285 535 1235 b 469 1153 535 1228 535 1228 b 396 1081 400 1075 403 1076 m 582 204 b 611 28 618 35 618 32 b 478 1 603 24 481 0 b 447 122 472 6 471 13 b 422 233 435 182 424 232 b 306 194 422 233 369 215 l 189 156 l 168 92 b 110 -25 126 -43 132 -32 b -8 24 -14 14 -10 13 b 286 964 -6 32 282 956 b 292 971 288 967 290 969 b 422 931 294 971 414 935 b 489 638 426 929 426 929 b 582 204 521 486 563 292 m 318 356 b 392 381 358 369 392 381 b 339 629 392 381 340 625 b 322 585 338 631 331 610 b 247 342 311 547 260 385 b 244 331 244 336 244 331 b 318 356 244 331 278 342 "},"Â":{"ha":617,"x_min":0,"x_max":0,"o":"m 344 1164 b 289 1061 344 1164 319 1118 l 203 1097 b 218 1125 207 1107 213 1115 b 303 1283 258 1203 297 1274 b 321 1307 313 1304 317 1308 b 399 1263 329 1306 394 1267 b 482 1107 400 1260 442 1181 l 399 1065 b 344 1164 369 1121 346 1164 m 582 204 b 611 28 618 35 618 32 b 478 1 603 24 481 0 b 447 122 472 6 471 13 b 422 233 435 182 424 232 b 306 194 422 233 369 215 l 189 156 l 168 92 b 110 -25 126 -43 132 -32 b -8 24 -14 14 -10 13 b 286 964 -6 32 282 956 b 292 971 288 967 290 969 b 422 931 294 971 414 935 b 489 638 426 929 426 929 b 582 204 521 486 563 292 m 318 356 b 392 381 358 369 392 381 b 339 629 392 381 340 625 b 322 585 338 631 331 610 b 247 342 311 547 260 385 b 244 331 244 336 244 331 b 318 356 244 331 278 342 "},"Ã":{"ha":617,"x_min":0,"x_max":0,"o":"m 257 1129 l 179 1129 l 179 1133 b 293 1257 179 1190 239 1256 b 388 1221 322 1258 338 1253 b 490 1200 436 1189 464 1183 b 497 1242 500 1206 503 1225 b 536 1243 496 1243 499 1243 l 576 1243 l 578 1236 b 549 1146 582 1197 572 1168 b 436 1114 521 1119 476 1107 l 436 1114 b 340 1157 408 1118 383 1129 b 281 1169 301 1182 296 1183 b 258 1133 271 1161 260 1143 m 582 204 b 611 28 618 35 618 32 b 478 1 603 24 481 0 b 447 122 472 6 471 13 b 422 233 435 182 424 232 b 306 194 422 233 369 215 l 189 156 l 168 92 b 110 -25 126 -43 132 -32 b -8 24 -14 14 -10 13 b 286 964 -6 32 282 956 b 292 971 288 967 290 969 b 422 931 294 971 414 935 b 489 638 426 929 426 929 b 582 204 521 486 563 292 m 318 356 b 392 381 358 369 390 381 b 339 629 392 381 340 625 b 322 585 338 631 331 610 b 247 342 311 547 260 385 b 244 331 244 336 244 331 b 318 356 244 331 278 342 "},"Ä":{"ha":617,"x_min":0,"x_max":0,"o":"m 582 1185 b 581 1185 583 1185 582 1183 b 581 1185 579 1185 579 1185 b 582 1185 581 1185 582 1185 m 267 1121 b 211 1179 239 1146 211 1176 b 236 1208 211 1183 214 1186 b 267 1240 250 1222 264 1236 b 283 1253 274 1249 281 1253 b 346 1190 288 1253 346 1194 b 274 1117 346 1186 278 1117 b 267 1121 272 1117 269 1118 m 438 1121 b 382 1178 411 1144 382 1175 b 444 1244 382 1182 414 1215 b 488 1222 456 1256 453 1257 b 494 1163 525 1185 524 1193 b 464 1131 482 1150 468 1136 b 438 1121 447 1114 446 1113 m 582 204 b 611 28 618 35 618 32 b 478 1 603 24 481 0 b 447 122 472 6 471 13 b 422 233 435 182 424 232 b 306 194 422 233 369 215 l 189 156 l 168 92 b 110 -25 126 -43 132 -32 b -8 24 -14 14 -10 13 b 286 964 -6 32 282 956 b 292 971 288 967 290 969 b 422 931 294 971 414 935 b 489 638 426 929 426 929 b 582 204 521 486 563 292 m 318 356 b 392 381 358 369 390 381 b 339 629 392 381 340 625 b 322 585 338 631 331 610 b 247 342 311 547 260 385 b 244 331 244 336 244 331 b 318 356 244 331 278 342 "},"Å":{"ha":617,"x_min":0,"x_max":0,"o":"m 386 1075 b 338 1235 321 1083 297 1165 b 507 1206 392 1328 507 1308 b 386 1075 507 1132 446 1067 m 424 1217 b 394 1158 407 1210 390 1176 b 406 1154 396 1150 397 1149 b 432 1201 418 1163 431 1185 b 424 1217 432 1217 431 1221 m 582 204 b 611 28 618 35 618 32 b 478 1 603 24 481 0 b 447 122 472 6 471 13 b 422 233 435 182 424 232 b 306 194 422 233 369 215 l 189 156 l 168 92 b 110 -25 126 -43 132 -32 b -8 24 -14 14 -10 13 b 286 964 -6 32 282 956 b 292 971 288 967 290 969 b 422 931 294 971 414 935 b 489 638 426 929 426 929 b 582 204 521 486 563 292 m 318 356 b 392 381 358 369 390 381 b 339 629 392 381 340 625 b 322 585 338 631 331 610 b 247 342 311 547 260 385 b 244 331 244 336 244 331 b 318 356 244 331 278 342 "},"Æ":{"ha":918,"x_min":0,"x_max":0,"o":"m 590 539 b 586 514 589 528 588 517 b 586 510 586 513 586 510 b 700 564 588 510 632 531 b 788 603 781 604 782 604 b 843 496 792 603 815 558 b 775 435 854 472 858 476 b 593 346 647 372 613 356 l 572 336 l 572 286 b 574 242 572 271 574 256 b 597 133 576 186 585 147 b 608 129 600 129 604 128 b 782 314 649 144 714 215 b 793 331 788 322 793 329 b 900 224 796 331 900 225 b 879 193 900 222 890 208 b 581 -22 764 36 669 -32 b 511 7 556 -19 532 -10 b 454 89 488 25 469 53 b 424 229 439 126 428 174 b 424 229 424 229 424 229 b 422 233 424 232 422 232 b 306 194 421 233 368 215 l 189 156 l 168 92 b 110 -25 126 -43 132 -32 b -8 24 -14 14 -10 13 b 286 964 -6 32 282 956 b 292 971 288 967 290 969 b 422 931 294 971 414 935 b 469 726 426 929 426 929 b 469 729 469 728 469 729 b 490 831 472 739 485 804 b 518 947 494 850 513 924 b 735 949 526 983 500 982 b 838 933 760 944 806 938 b 904 903 908 924 907 924 b 894 840 903 897 899 869 b 885 783 890 810 886 785 b 774 792 881 776 881 776 b 638 803 625 814 639 813 b 628 754 638 800 632 778 b 603 625 621 718 611 674 b 590 539 597 594 594 569 m 318 356 b 392 381 358 369 390 381 b 339 629 392 383 340 625 b 322 585 338 631 331 610 b 247 342 311 547 260 385 b 244 331 244 336 244 331 b 318 356 244 331 278 342 "},"Ç":{"ha":542,"x_min":0,"x_max":0,"o":"m 415 788 b 313 793 381 832 356 833 b 218 156 175 665 121 303 b 383 236 258 94 321 125 b 460 236 403 269 394 269 b 515 164 542 194 538 201 b 276 -25 451 49 365 -18 b 258 -106 265 -72 258 -106 b 368 -67 258 -107 307 -89 l 408 -150 b 379 -161 400 -154 389 -158 b 210 -224 296 -192 221 -219 b 182 -229 189 -232 183 -233 b 153 -144 176 -221 151 -150 b 185 -7 153 -142 168 -76 b 19 390 78 42 15 189 b 294 957 26 654 144 899 b 535 879 382 992 481 960 b 497 826 547 860 549 861 b 415 788 422 775 425 776 "},"È":{"ha":524,"x_min":0,"x_max":0,"o":"m 315 1083 b 190 1225 313 1085 206 1207 b 217 1261 185 1232 183 1232 b 276 1267 258 1297 251 1297 b 386 1139 393 1135 388 1142 b 321 1079 385 1135 324 1079 b 315 1083 321 1079 318 1081 m 196 539 b 192 514 194 528 193 517 b 192 510 192 511 192 510 b 306 564 193 510 238 531 b 393 603 386 604 388 604 b 450 496 397 603 421 558 b 381 435 460 472 464 476 b 199 346 254 372 218 356 l 178 336 l 178 286 b 215 129 178 188 194 121 b 388 314 254 144 319 215 b 399 331 393 322 399 329 b 506 224 401 331 506 225 b 485 193 506 222 497 208 b 188 -22 369 36 275 -32 b 31 397 68 -8 10 144 b 69 692 39 499 50 590 b 76 729 72 707 75 724 b 97 831 78 739 90 804 b 124 947 101 850 118 924 b 340 949 132 982 107 982 b 443 933 365 944 413 938 b 510 903 514 924 514 924 b 501 840 508 897 506 869 b 492 783 497 810 493 785 b 379 792 488 776 486 776 b 243 803 232 814 244 813 b 233 754 243 800 239 778 b 208 625 226 718 218 674 b 196 539 204 594 200 569 "},"É":{"ha":524,"x_min":0,"x_max":0,"o":"m 369 1081 b 308 1138 357 1090 308 1135 b 374 1218 307 1142 307 1142 b 443 1289 438 1290 439 1292 b 507 1232 450 1285 507 1235 b 442 1153 507 1228 507 1228 b 369 1081 374 1075 375 1076 m 196 539 b 192 514 194 528 193 517 b 192 510 192 511 192 510 b 306 564 193 510 238 531 b 393 603 386 604 388 604 b 450 496 397 603 421 558 b 381 435 460 472 464 476 b 199 346 254 372 218 356 l 178 336 l 178 286 b 215 129 178 188 194 121 b 388 314 254 144 319 215 b 399 331 393 322 399 329 b 506 224 401 331 506 225 b 485 193 506 222 497 208 b 188 -22 369 36 275 -32 b 31 397 68 -8 10 144 b 69 692 39 499 50 590 b 76 729 72 707 75 724 b 97 831 78 739 90 804 b 124 947 101 850 118 924 b 340 949 132 982 107 982 b 443 933 365 944 413 938 b 510 903 514 924 514 924 b 501 840 508 897 506 869 b 492 783 497 810 493 785 b 379 792 488 776 486 776 b 243 803 232 814 244 813 b 233 754 243 800 239 778 b 208 625 226 718 218 674 b 196 539 204 594 200 569 "},"Ê":{"ha":524,"x_min":0,"x_max":0,"o":"m 333 1164 b 278 1061 333 1164 308 1118 l 190 1097 b 206 1125 196 1107 200 1115 b 290 1283 247 1203 285 1274 b 308 1307 301 1304 304 1308 b 386 1263 318 1306 383 1267 b 469 1107 389 1260 431 1181 l 388 1065 b 333 1164 357 1121 333 1164 m 196 539 b 192 514 194 528 193 517 b 192 510 192 511 192 510 b 306 564 193 510 238 531 b 393 603 386 604 388 604 b 450 496 397 603 421 558 b 381 435 460 472 464 476 b 199 346 254 372 218 356 l 178 336 l 178 286 b 215 129 178 188 194 121 b 388 314 254 144 319 215 b 399 331 393 322 399 329 b 506 224 401 331 506 225 b 485 193 506 222 497 208 b 188 -22 369 36 275 -32 b 31 397 68 -8 10 144 b 69 692 39 499 50 590 b 76 729 72 707 75 724 b 97 831 78 739 90 804 b 124 947 101 850 118 924 b 340 949 132 982 107 982 b 443 933 365 944 413 938 b 510 903 514 924 514 924 b 501 840 508 897 506 869 b 492 783 497 810 493 785 b 379 792 488 776 486 776 b 243 803 232 814 244 813 b 233 754 243 800 239 778 b 208 625 226 718 218 674 b 196 539 204 594 200 569 "},"Ë":{"ha":524,"x_min":0,"x_max":0,"o":"m 213 1121 b 158 1179 186 1146 158 1176 b 182 1208 158 1183 160 1186 b 214 1240 196 1222 210 1236 b 231 1253 221 1249 228 1253 b 293 1190 235 1253 293 1194 b 219 1117 293 1186 225 1117 b 213 1121 219 1117 217 1118 m 385 1121 b 329 1178 358 1144 329 1175 b 392 1244 329 1182 361 1215 b 435 1222 401 1256 400 1257 b 442 1163 471 1185 471 1193 b 410 1131 429 1150 415 1136 b 385 1121 393 1114 393 1113 m 196 539 b 192 514 194 528 193 517 b 192 510 192 511 192 510 b 306 564 193 510 238 531 b 393 603 386 604 388 604 b 450 496 397 603 421 558 b 381 435 460 472 464 476 b 199 346 254 372 218 356 l 178 336 l 178 286 b 215 129 178 188 194 121 b 388 314 254 144 319 215 b 399 331 393 322 399 329 b 506 224 401 331 506 225 b 485 193 506 222 497 208 b 188 -22 369 36 275 -32 b 31 397 68 -8 10 144 b 69 692 39 499 50 590 b 76 729 72 707 75 724 b 97 831 78 739 90 804 b 124 947 101 850 118 924 b 340 949 132 982 107 982 b 443 933 365 944 413 938 b 510 903 514 924 514 924 b 501 840 508 897 506 869 b 492 783 497 810 493 785 b 379 792 488 776 486 776 b 243 803 232 814 244 813 b 233 754 243 800 239 778 b 208 625 226 718 218 674 b 196 539 204 594 200 569 "},"Ì":{"ha":243,"x_min":0,"x_max":0,"o":"m 82 1014 b -44 1157 79 1017 -29 1139 b -17 1193 -50 1164 -50 1164 b 43 1199 24 1229 17 1229 b 151 1069 158 1067 153 1074 b 86 1011 151 1067 89 1011 b 82 1014 86 1011 83 1013 m 206 135 b 206 46 207 86 207 47 b 135 36 206 46 174 42 b 61 28 97 32 64 28 b 57 29 60 26 57 28 b 51 226 57 31 54 119 b 40 653 49 333 44 525 b 35 885 38 781 35 885 b 186 876 36 886 185 878 b 194 550 186 876 190 729 b 206 135 199 371 204 183 "},"Í":{"ha":242,"x_min":0,"x_max":0,"o":"m 96 1013 b 35 1068 85 1022 36 1067 b 101 1149 33 1072 35 1072 b 171 1221 165 1222 165 1224 b 233 1163 178 1217 233 1165 b 168 1085 233 1160 233 1160 b 96 1013 100 1007 101 1008 m 194 550 b 204 135 199 371 203 183 b 206 46 206 86 206 47 b 135 36 204 46 172 42 b 61 28 96 32 63 28 b 56 29 58 26 57 28 b 51 226 56 31 53 119 b 40 653 49 333 43 525 b 35 885 38 781 35 885 b 185 876 36 886 183 878 b 194 550 186 876 190 729 "},"Î":{"ha":243,"x_min":0,"x_max":0,"o":"m 124 1096 b 68 993 122 1096 97 1050 l -19 1029 b -4 1057 -15 1038 -10 1047 b 81 1215 38 1135 75 1206 b 99 1239 92 1235 94 1240 b 176 1194 108 1236 174 1199 b 260 1039 178 1190 221 1113 l 176 997 b 124 1096 147 1053 124 1096 m 194 550 b 206 135 199 371 204 183 b 206 46 207 86 207 47 b 135 36 206 46 174 42 b 61 28 97 32 64 28 b 57 29 58 26 57 28 b 51 226 57 31 54 119 b 40 653 49 333 44 525 b 35 885 38 781 35 885 b 185 876 36 886 185 878 b 194 550 186 876 190 729 "},"Ï":{"ha":242,"x_min":0,"x_max":0,"o":"m 92 1122 b 19 1047 92 1117 24 1047 b 13 1053 18 1047 15 1050 b -43 1111 -15 1078 -43 1107 b -18 1140 -43 1114 -40 1117 b 13 1172 -4 1154 10 1168 b 29 1185 19 1179 26 1185 b 92 1122 33 1185 92 1126 m 233 1154 b 240 1094 271 1117 269 1124 b 210 1063 228 1082 214 1068 b 183 1051 193 1046 192 1044 b 128 1110 157 1075 128 1107 b 190 1176 128 1114 160 1147 b 233 1154 201 1188 199 1189 m 194 550 b 204 135 199 371 203 183 b 206 46 206 86 206 47 b 135 36 204 46 172 42 b 61 28 96 32 63 28 b 56 29 58 26 57 28 b 51 226 56 31 53 119 b 40 653 49 333 43 525 b 35 885 38 781 35 885 b 185 876 36 886 183 878 b 194 550 186 876 190 729 "},"Ñ":{"ha":661,"x_min":0,"x_max":0,"o":"m 226 1129 l 149 1129 l 149 1133 b 263 1257 149 1190 208 1256 b 357 1221 292 1258 307 1253 b 460 1200 406 1189 433 1183 b 465 1242 469 1206 472 1225 b 506 1243 465 1243 468 1243 l 546 1243 l 547 1236 b 518 1146 551 1197 542 1168 b 406 1114 490 1119 446 1107 l 406 1114 b 310 1157 378 1118 353 1129 b 250 1169 271 1182 265 1183 b 228 1133 240 1161 229 1143 m 608 968 b 624 865 628 967 626 971 b 618 746 622 839 619 785 b 614 629 617 706 615 654 b 610 514 614 606 611 554 b 606 397 608 475 607 422 b 597 163 604 351 600 243 b 589 4 592 19 590 4 b 442 -18 586 3 444 -18 b 436 -12 440 -18 438 -15 b 399 85 433 -7 428 8 b 369 163 393 101 379 136 b 326 276 360 188 340 239 b 285 388 313 314 293 364 b 235 521 247 485 235 519 b 233 519 235 521 233 521 b 226 489 232 518 229 504 b 214 428 224 472 218 444 b 200 354 211 411 206 378 b 188 285 196 331 190 300 b 176 231 185 269 179 244 b 147 106 156 115 154 107 b 101 111 144 104 124 107 b 36 122 79 115 50 121 b 6 136 11 126 6 129 b 24 235 6 139 17 196 b 36 300 26 247 32 276 b 68 467 58 419 63 438 b 82 540 71 483 78 517 b 96 618 86 564 93 599 b 111 697 100 638 107 674 b 132 794 124 764 129 789 b 253 840 135 799 165 811 b 310 747 274 847 269 857 b 340 667 319 724 332 688 b 385 551 349 646 368 593 b 432 425 400 508 422 451 b 451 375 442 399 451 375 b 454 406 453 374 453 388 b 463 619 458 513 460 579 b 467 739 463 644 465 697 b 471 851 468 779 469 829 b 474 925 472 874 472 907 b 482 969 475 961 476 968 b 608 968 486 971 575 969 "},"Ò":{"ha":590,"x_min":0,"x_max":0,"o":"m 276 1083 b 151 1225 274 1085 165 1207 b 178 1261 144 1232 144 1232 b 238 1267 218 1297 211 1297 b 347 1139 354 1135 347 1142 b 281 1079 346 1135 285 1079 b 276 1083 281 1079 279 1081 m 251 971 b 567 476 426 1018 568 796 b 271 -22 567 171 439 -43 b 251 971 -49 19 -65 886 m 308 132 b 408 585 383 175 435 401 b 285 825 389 729 328 847 b 172 474 225 794 172 632 b 308 132 172 289 249 97 "},"Ó":{"ha":590,"x_min":0,"x_max":0,"o":"m 281 1081 b 219 1138 269 1090 221 1135 b 286 1218 219 1142 219 1142 b 356 1289 350 1290 351 1292 b 419 1232 363 1285 419 1235 b 353 1153 419 1228 419 1228 b 281 1081 285 1075 288 1076 m 251 971 b 567 476 426 1018 568 796 b 271 -22 567 171 439 -43 b 251 971 -49 19 -65 886 m 308 132 b 408 585 383 175 435 401 b 285 825 389 729 328 847 b 172 474 225 794 172 632 b 308 132 172 289 249 97 "},"Ô":{"ha":590,"x_min":0,"x_max":0,"o":"m 297 1164 b 242 1061 296 1164 272 1118 l 154 1097 b 169 1125 160 1107 164 1115 b 254 1283 211 1203 249 1274 b 272 1307 265 1304 268 1308 b 350 1263 282 1306 347 1267 b 433 1107 353 1260 394 1181 l 350 1065 b 297 1164 321 1121 297 1164 m 251 971 b 567 476 426 1018 568 796 b 271 -22 567 171 439 -43 b 251 971 -49 19 -65 886 m 308 132 b 408 585 383 175 435 401 b 285 825 389 729 328 847 b 172 474 225 794 172 632 b 308 132 172 289 249 97 "},"Õ":{"ha":590,"x_min":0,"x_max":0,"o":"m 194 1129 l 115 1129 l 115 1133 b 229 1257 115 1190 175 1256 b 324 1221 260 1258 274 1253 b 428 1200 374 1189 400 1183 b 433 1242 436 1206 439 1225 b 472 1243 432 1243 435 1243 l 514 1243 l 514 1236 b 485 1146 518 1197 508 1168 b 372 1114 458 1119 414 1107 l 372 1114 b 278 1157 344 1118 319 1129 b 217 1169 238 1182 232 1183 b 194 1133 207 1161 196 1143 m 251 971 b 567 476 426 1018 568 796 b 271 -21 567 171 439 -43 b 251 971 -49 19 -65 886 m 308 132 b 408 585 383 175 435 401 b 285 825 389 729 328 847 b 172 474 225 794 172 632 b 308 132 172 289 249 97 "},"Ö":{"ha":590,"x_min":0,"x_max":0,"o":"m 228 1121 b 172 1179 201 1146 172 1176 b 197 1208 172 1183 175 1186 b 229 1240 211 1222 225 1236 b 246 1253 236 1249 243 1253 b 307 1190 250 1253 307 1194 b 235 1117 307 1186 239 1117 b 228 1121 235 1117 232 1118 m 400 1121 b 344 1178 374 1144 344 1175 b 407 1244 344 1182 376 1215 b 449 1222 417 1256 414 1257 b 457 1163 486 1185 485 1193 b 425 1131 444 1150 431 1136 b 400 1121 408 1114 407 1113 m 251 971 b 567 476 426 1018 568 796 b 271 -21 567 171 439 -43 b 251 971 -49 19 -65 886 m 308 132 b 408 585 383 175 435 401 b 285 825 389 729 328 847 b 172 474 225 794 172 632 b 308 132 172 289 249 97 "},"×":{"ha":672,"x_min":0,"x_max":0,"o":"m 538 401 b 638 292 643 296 640 299 b 540 197 633 282 547 197 b 436 296 536 197 524 208 b 336 394 382 350 338 394 b 235 294 335 394 290 350 b 131 194 157 217 133 194 b 79 242 128 194 115 206 b 38 304 28 293 29 293 b 136 406 40 308 85 353 b 231 500 188 457 231 499 b 135 596 231 500 188 543 b 32 707 35 694 29 701 b 131 801 36 714 126 801 b 239 700 136 801 140 797 l 335 603 l 435 703 b 539 801 521 789 535 801 b 638 704 546 801 638 711 b 539 600 638 700 617 678 b 440 500 485 546 440 500 b 538 401 440 499 483 454 "},"Ø":{"ha":628,"x_min":0,"x_max":0,"o":"m 621 981 b 532 783 621 979 583 897 b 583 476 565 700 585 594 b 288 -22 583 171 456 -43 b 188 24 250 -17 217 0 b 140 -82 161 -36 142 -82 b 72 -58 140 -82 110 -71 b 3 -35 36 -46 6 -35 b 90 174 1 -35 51 83 b 268 971 -15 446 40 910 b 432 931 329 988 385 971 b 489 1053 465 1003 489 1053 b 621 981 490 1054 619 982 m 193 407 b 214 454 200 422 207 438 b 364 782 251 536 314 671 b 301 825 343 817 321 835 b 190 474 242 794 190 632 b 193 407 190 451 190 429 m 325 132 b 429 558 397 172 446 381 b 313 306 375 440 328 338 b 256 176 306 289 283 238 b 325 132 278 138 303 118 "},"Ù":{"ha":617,"x_min":0,"x_max":0,"o":"m 281 1083 b 156 1225 278 1085 169 1207 b 182 1261 149 1232 149 1232 b 242 1267 222 1297 215 1297 b 351 1139 358 1135 351 1142 b 285 1079 350 1135 289 1079 b 281 1083 285 1079 283 1081 m 563 964 b 588 610 581 901 593 719 b 271 -28 568 214 439 -47 b 29 561 122 -10 29 219 b 79 931 29 721 58 931 b 213 900 88 931 210 901 b 208 846 217 896 215 883 b 263 149 156 593 181 267 b 328 163 286 115 297 118 b 418 908 424 307 465 649 b 415 936 417 924 414 935 b 563 964 421 942 561 967 "},"Ú":{"ha":617,"x_min":0,"x_max":0,"o":"m 321 1081 b 260 1138 310 1090 261 1135 b 326 1218 260 1142 260 1142 b 396 1289 390 1290 392 1292 b 460 1232 403 1285 460 1235 b 393 1153 460 1228 460 1228 b 321 1081 325 1075 328 1076 m 563 964 b 588 610 581 901 593 719 b 271 -28 568 214 439 -47 b 29 561 122 -10 29 219 b 79 931 29 721 58 931 b 213 900 88 931 210 901 b 208 846 217 896 215 883 b 263 149 156 593 181 267 b 328 163 286 115 297 118 b 418 908 424 307 465 649 b 415 936 417 924 414 935 b 563 964 421 942 561 967 "},"Û":{"ha":617,"x_min":0,"x_max":0,"o":"m 296 1164 b 240 1061 296 1164 271 1118 l 154 1097 b 169 1125 158 1107 164 1115 b 254 1283 211 1203 249 1274 b 272 1307 265 1304 268 1308 b 350 1263 282 1306 347 1267 b 433 1107 351 1260 394 1181 l 350 1065 b 296 1164 321 1121 297 1164 m 563 964 b 588 610 581 901 593 719 b 271 -28 568 214 439 -47 b 29 561 122 -10 29 219 b 79 931 29 721 58 931 b 213 900 88 931 210 901 b 208 846 217 896 215 883 b 263 149 156 593 181 267 b 328 163 286 115 297 118 b 418 908 424 307 465 649 b 415 936 417 924 414 935 b 563 964 421 942 561 967 "},"Ü":{"ha":617,"x_min":0,"x_max":0,"o":"m 213 1121 b 157 1179 185 1146 157 1176 b 182 1208 157 1183 160 1186 b 213 1240 196 1222 210 1236 b 229 1253 219 1249 226 1253 b 292 1190 233 1253 292 1194 b 218 1117 292 1186 224 1117 b 213 1121 218 1117 215 1118 m 383 1121 b 328 1178 357 1144 328 1175 b 390 1244 328 1182 360 1215 b 433 1222 401 1256 399 1257 b 440 1163 469 1185 469 1193 b 408 1131 428 1150 414 1136 b 383 1121 393 1114 392 1113 m 563 964 b 588 610 581 901 593 719 b 271 -28 568 214 439 -47 b 29 561 122 -10 29 219 b 79 931 29 721 58 931 b 213 900 88 931 210 901 b 208 846 217 896 215 883 b 263 149 156 593 181 267 b 328 163 286 115 297 118 b 418 908 424 307 465 649 b 415 936 417 924 414 935 b 563 964 421 942 561 967 "},"Ý":{"ha":539,"x_min":0,"x_max":0,"o":"m 296 1081 b 235 1138 283 1090 235 1135 b 300 1218 233 1142 233 1142 b 369 1289 364 1290 365 1292 b 433 1232 376 1285 433 1235 b 368 1153 433 1228 433 1228 b 296 1081 300 1075 301 1076 m 544 926 b 504 792 549 922 546 913 b 389 454 457 654 456 651 b 263 82 321 256 290 167 b 217 -25 224 -32 226 -25 b 150 -4 214 -25 185 -15 b 85 29 85 18 83 18 b 129 163 86 33 106 93 b 172 290 153 231 172 289 b 28 747 172 293 142 388 b 4 846 0 833 -1 842 b 136 886 8 850 132 888 b 168 804 142 885 144 879 b 256 533 217 653 254 533 b 308 683 256 532 260 542 b 365 854 333 758 360 835 b 389 924 372 872 383 903 b 413 971 401 960 407 969 b 544 926 417 972 542 931 "},"ß":{"ha":631,"x_min":0,"x_max":0,"o":"m 443 628 b 410 8 696 447 679 142 b 344 -14 365 -14 350 -19 b 297 111 340 -10 297 104 b 318 126 297 117 301 119 b 254 565 553 222 519 456 b 253 640 225 578 226 571 b 290 713 279 711 276 706 b 326 793 347 742 357 764 b 199 842 301 818 239 842 b 194 419 194 842 194 842 b 192 -6 196 -1 196 -1 b 54 -6 185 -10 58 -10 b 49 497 49 -1 49 -6 b 51 988 49 983 49 985 b 226 986 57 992 196 990 b 443 644 450 957 563 781 l 435 633 l 443 628 "},"à":{"ha":617,"x_min":0,"x_max":0,"o":"m 357 1083 b 231 1225 353 1085 246 1207 b 257 1261 225 1232 225 1232 b 318 1267 299 1297 292 1297 b 426 1139 433 1135 428 1142 b 361 1079 425 1135 364 1079 b 357 1083 361 1079 358 1081 m 582 204 b 611 28 618 35 618 32 b 478 1 603 24 481 0 b 447 122 472 6 471 13 b 422 233 435 182 424 232 b 306 194 422 233 369 215 l 189 156 l 168 92 b 110 -25 126 -43 132 -32 b -8 24 -14 14 -10 13 b 286 964 -6 32 282 956 b 292 971 288 967 290 969 b 422 931 294 971 414 935 b 489 638 426 929 426 929 b 582 204 521 486 563 292 m 318 356 b 392 381 358 369 390 381 b 339 629 392 381 340 625 b 322 585 338 631 331 610 b 247 342 311 547 260 385 b 244 331 244 336 244 331 b 318 356 244 331 278 342 "},"á":{"ha":617,"x_min":0,"x_max":0,"o":"m 396 1081 b 335 1138 385 1090 336 1135 b 401 1218 335 1142 335 1142 b 471 1289 465 1290 467 1292 b 535 1232 478 1285 535 1235 b 469 1153 535 1228 535 1228 b 396 1081 400 1075 403 1076 m 582 204 b 611 28 618 35 618 32 b 478 1 603 24 481 0 b 447 122 472 6 471 13 b 422 233 435 182 424 232 b 306 194 422 233 369 215 l 189 156 l 168 92 b 110 -25 126 -43 132 -32 b -8 24 -14 14 -10 13 b 286 964 -6 32 282 956 b 292 971 288 967 290 969 b 422 931 294 971 414 935 b 489 638 426 929 426 929 b 582 204 521 486 563 292 m 318 356 b 392 381 358 369 392 381 b 339 629 392 381 340 625 b 322 585 338 631 331 610 b 247 342 311 547 260 385 b 244 331 244 336 244 331 b 318 356 244 331 278 342 "},"â":{"ha":617,"x_min":0,"x_max":0,"o":"m 344 1164 b 289 1061 344 1164 319 1118 l 203 1097 b 218 1125 207 1107 213 1115 b 303 1283 258 1203 297 1274 b 321 1307 313 1304 317 1308 b 399 1263 329 1306 394 1267 b 482 1107 400 1260 442 1181 l 399 1065 b 344 1164 369 1121 346 1164 m 582 204 b 611 28 618 35 618 32 b 478 1 603 24 481 0 b 447 122 472 6 471 13 b 422 233 435 182 424 232 b 306 194 422 233 369 215 l 189 156 l 168 92 b 110 -25 126 -43 132 -32 b -8 24 -14 14 -10 13 b 286 964 -6 32 282 956 b 292 971 288 967 290 969 b 422 931 294 971 414 935 b 489 638 426 929 426 929 b 582 204 521 486 563 292 m 318 356 b 392 381 358 369 392 381 b 339 629 392 381 340 625 b 322 585 338 631 331 610 b 247 342 311 547 260 385 b 244 331 244 336 244 331 b 318 356 244 331 278 342 "},"ã":{"ha":617,"x_min":0,"x_max":0,"o":"m 257 1129 l 179 1129 l 179 1133 b 293 1257 179 1190 239 1256 b 388 1221 322 1258 338 1253 b 490 1200 436 1189 464 1183 b 497 1242 500 1206 503 1225 b 536 1243 496 1243 499 1243 l 576 1243 l 578 1236 b 549 1146 582 1197 572 1168 b 436 1114 521 1119 476 1107 l 436 1114 b 340 1157 408 1118 383 1129 b 281 1169 301 1182 296 1183 b 258 1133 271 1161 260 1143 m 582 204 b 611 28 618 35 618 32 b 478 1 603 24 481 0 b 447 122 472 6 471 13 b 422 233 435 182 424 232 b 306 194 422 233 369 215 l 189 156 l 168 92 b 110 -25 126 -43 132 -32 b -8 24 -14 14 -10 13 b 286 964 -6 32 282 956 b 292 971 288 967 290 969 b 422 931 294 971 414 935 b 489 638 426 929 426 929 b 582 204 521 486 563 292 m 318 356 b 392 381 358 369 390 381 b 339 629 392 381 340 625 b 322 585 338 631 331 610 b 247 342 311 547 260 385 b 244 331 244 336 244 331 b 318 356 244 331 278 342 "},"ä":{"ha":617,"x_min":0,"x_max":0,"o":"m 582 1185 b 581 1185 583 1185 582 1183 b 581 1185 579 1185 579 1185 b 582 1185 581 1185 582 1185 m 267 1121 b 211 1179 239 1146 211 1176 b 236 1208 211 1183 214 1186 b 267 1240 250 1222 264 1236 b 283 1253 274 1249 281 1253 b 346 1190 288 1253 346 1194 b 274 1117 346 1186 278 1117 b 267 1121 272 1117 269 1118 m 438 1121 b 382 1178 411 1144 382 1175 b 444 1244 382 1182 414 1215 b 488 1222 456 1256 453 1257 b 494 1163 525 1185 524 1193 b 464 1131 482 1150 468 1136 b 438 1121 447 1114 446 1113 m 582 204 b 611 28 618 35 618 32 b 478 1 603 24 481 0 b 447 122 472 6 471 13 b 422 233 435 182 424 232 b 306 194 422 233 369 215 l 189 156 l 168 92 b 110 -25 126 -43 132 -32 b -8 24 -14 14 -10 13 b 286 964 -6 32 282 956 b 292 971 288 967 290 969 b 422 931 294 971 414 935 b 489 638 426 929 426 929 b 582 204 521 486 563 292 m 318 356 b 392 381 358 369 390 381 b 339 629 392 381 340 625 b 322 585 338 631 331 610 b 247 342 311 547 260 385 b 244 331 244 336 244 331 b 318 356 244 331 278 342 "},"å":{"ha":617,"x_min":0,"x_max":0,"o":"m 386 1075 b 338 1235 321 1083 297 1165 b 507 1206 392 1328 507 1308 b 386 1075 507 1132 446 1067 m 424 1217 b 394 1158 407 1210 390 1176 b 406 1154 396 1150 397 1149 b 432 1201 418 1163 431 1185 b 424 1217 432 1217 431 1221 m 582 204 b 611 28 618 35 618 32 b 478 1 603 24 481 0 b 447 122 472 6 471 13 b 422 233 435 182 424 232 b 306 194 422 233 369 215 l 189 156 l 168 92 b 110 -25 126 -43 132 -32 b -8 24 -14 14 -10 13 b 286 964 -6 32 282 956 b 292 971 288 967 290 969 b 422 931 294 971 414 935 b 489 638 426 929 426 929 b 582 204 521 486 563 292 m 318 356 b 392 381 358 369 390 381 b 339 629 392 381 340 625 b 322 585 338 631 331 610 b 247 342 311 547 260 385 b 244 331 244 336 244 331 b 318 356 244 331 278 342 "},"æ":{"ha":918,"x_min":0,"x_max":0,"o":"m 590 539 b 586 514 589 528 588 517 b 586 510 586 513 586 510 b 700 564 588 510 632 531 b 788 603 781 604 782 604 b 843 496 792 603 815 558 b 775 435 854 472 858 476 b 593 346 647 372 613 356 l 572 336 l 572 286 b 574 242 572 271 574 256 b 597 133 576 186 585 147 b 608 129 600 129 604 128 b 782 314 649 144 714 215 b 793 331 788 322 793 329 b 900 224 796 331 900 225 b 879 193 900 222 890 208 b 581 -22 764 36 669 -32 b 511 7 556 -19 532 -10 b 454 89 488 25 469 53 b 424 229 439 126 428 174 b 424 229 424 229 424 229 b 422 233 424 232 422 232 b 306 194 421 233 368 215 l 189 156 l 168 92 b 110 -25 126 -43 132 -32 b -8 24 -14 14 -10 13 b 286 964 -6 32 282 956 b 292 971 288 967 290 969 b 422 931 294 971 414 935 b 469 726 426 929 426 929 b 469 729 469 728 469 729 b 490 831 472 739 485 804 b 518 947 494 850 513 924 b 735 949 526 983 500 982 b 838 933 760 944 806 938 b 904 903 908 924 907 924 b 894 840 903 897 899 869 b 885 783 890 810 886 785 b 774 792 881 776 881 776 b 638 803 625 814 639 813 b 628 754 638 800 632 778 b 603 625 621 718 611 674 b 590 539 597 594 594 569 m 318 356 b 392 381 358 369 390 381 b 339 629 392 383 340 625 b 322 585 338 631 331 610 b 247 342 311 547 260 385 b 244 331 244 336 244 331 b 318 356 244 331 278 342 "},"ç":{"ha":542,"x_min":0,"x_max":0,"o":"m 415 788 b 313 793 381 832 356 833 b 218 156 175 665 121 303 b 383 236 258 94 321 125 b 460 236 403 269 394 269 b 515 164 542 194 538 201 b 276 -25 451 49 365 -18 b 258 -106 265 -72 258 -106 b 368 -67 258 -107 307 -89 l 408 -150 b 379 -161 400 -154 389 -158 b 210 -224 296 -192 221 -219 b 182 -229 189 -232 183 -233 b 153 -144 176 -221 151 -150 b 185 -7 153 -142 168 -76 b 19 390 78 42 15 189 b 294 957 26 654 144 899 b 535 879 382 992 481 960 b 497 826 547 860 549 861 b 415 788 422 775 425 776 "},"è":{"ha":524,"x_min":0,"x_max":0,"o":"m 315 1083 b 190 1225 313 1085 206 1207 b 217 1261 185 1232 183 1232 b 276 1267 258 1297 251 1297 b 386 1139 393 1135 388 1142 b 321 1079 385 1135 324 1079 b 315 1083 321 1079 318 1081 m 196 539 b 192 514 194 528 193 517 b 192 510 192 511 192 510 b 306 564 193 510 238 531 b 393 603 386 604 388 604 b 450 496 397 603 421 558 b 381 435 460 472 464 476 b 199 346 254 372 218 356 l 178 336 l 178 286 b 215 129 178 188 194 121 b 388 314 254 144 319 215 b 399 331 393 322 399 329 b 506 224 401 331 506 225 b 485 193 506 222 497 208 b 188 -22 369 36 275 -32 b 31 397 68 -8 10 144 b 69 692 39 499 50 590 b 76 729 72 707 75 724 b 97 831 78 739 90 804 b 124 947 101 850 118 924 b 340 949 132 982 107 982 b 443 933 365 944 413 938 b 510 903 514 924 514 924 b 501 840 508 897 506 869 b 492 783 497 810 493 785 b 379 792 488 776 486 776 b 243 803 232 814 244 813 b 233 754 243 800 239 778 b 208 625 226 718 218 674 b 196 539 204 594 200 569 "},"é":{"ha":524,"x_min":0,"x_max":0,"o":"m 369 1081 b 308 1138 357 1090 308 1135 b 374 1218 307 1142 307 1142 b 443 1289 438 1290 439 1292 b 507 1232 450 1285 507 1235 b 442 1153 507 1228 507 1228 b 369 1081 374 1075 375 1076 m 196 539 b 192 514 194 528 193 517 b 192 510 192 511 192 510 b 306 564 193 510 238 531 b 393 603 386 604 388 604 b 450 496 397 603 421 558 b 381 435 460 472 464 476 b 199 346 254 372 218 356 l 178 336 l 178 286 b 215 129 178 188 194 121 b 388 314 254 144 319 215 b 399 331 393 322 399 329 b 506 224 401 331 506 225 b 485 193 506 222 497 208 b 188 -22 369 36 275 -32 b 31 397 68 -8 10 144 b 69 692 39 499 50 590 b 76 729 72 707 75 724 b 97 831 78 739 90 804 b 124 947 101 850 118 924 b 340 949 132 982 107 982 b 443 933 365 944 413 938 b 510 903 514 924 514 924 b 501 840 508 897 506 869 b 492 783 497 810 493 785 b 379 792 488 776 486 776 b 243 803 232 814 244 813 b 233 754 243 800 239 778 b 208 625 226 718 218 674 b 196 539 204 594 200 569 "},"ê":{"ha":524,"x_min":0,"x_max":0,"o":"m 333 1164 b 278 1061 333 1164 308 1118 l 190 1097 b 206 1125 196 1107 200 1115 b 290 1283 247 1203 285 1274 b 308 1307 301 1304 304 1308 b 386 1263 318 1306 383 1267 b 469 1107 389 1260 431 1181 l 388 1065 b 333 1164 357 1121 333 1164 m 196 539 b 192 514 194 528 193 517 b 192 510 192 511 192 510 b 306 564 193 510 238 531 b 393 603 386 604 388 604 b 450 496 397 603 421 558 b 381 435 460 472 464 476 b 199 346 254 372 218 356 l 178 336 l 178 286 b 215 129 178 188 194 121 b 388 314 254 144 319 215 b 399 331 393 322 399 329 b 506 224 401 331 506 225 b 485 193 506 222 497 208 b 188 -22 369 36 275 -32 b 31 397 68 -8 10 144 b 69 692 39 499 50 590 b 76 729 72 707 75 724 b 97 831 78 739 90 804 b 124 947 101 850 118 924 b 340 949 132 982 107 982 b 443 933 365 944 413 938 b 510 903 514 924 514 924 b 501 840 508 897 506 869 b 492 783 497 810 493 785 b 379 792 488 776 486 776 b 243 803 232 814 244 813 b 233 754 243 800 239 778 b 208 625 226 718 218 674 b 196 539 204 594 200 569 "},"ë":{"ha":524,"x_min":0,"x_max":0,"o":"m 213 1121 b 158 1179 186 1146 158 1176 b 182 1208 158 1183 160 1186 b 214 1240 196 1222 210 1236 b 231 1253 221 1249 228 1253 b 293 1190 235 1253 293 1194 b 219 1117 293 1186 225 1117 b 213 1121 219 1117 217 1118 m 385 1121 b 329 1178 358 1144 329 1175 b 392 1244 329 1182 361 1215 b 435 1222 401 1256 400 1257 b 442 1163 471 1185 471 1193 b 410 1131 429 1150 415 1136 b 385 1121 393 1114 393 1113 m 196 539 b 192 514 194 528 193 517 b 192 510 192 511 192 510 b 306 564 193 510 238 531 b 393 603 386 604 388 604 b 450 496 397 603 421 558 b 381 435 460 472 464 476 b 199 346 254 372 218 356 l 178 336 l 178 286 b 215 129 178 188 194 121 b 388 314 254 144 319 215 b 399 331 393 322 399 329 b 506 224 401 331 506 225 b 485 193 506 222 497 208 b 188 -22 369 36 275 -32 b 31 397 68 -8 10 144 b 69 692 39 499 50 590 b 76 729 72 707 75 724 b 97 831 78 739 90 804 b 124 947 101 850 118 924 b 340 949 132 982 107 982 b 443 933 365 944 413 938 b 510 903 514 924 514 924 b 501 840 508 897 506 869 b 492 783 497 810 493 785 b 379 792 488 776 486 776 b 243 803 232 814 244 813 b 233 754 243 800 239 778 b 208 625 226 718 218 674 b 196 539 204 594 200 569 "},"ì":{"ha":243,"x_min":0,"x_max":0,"o":"m 82 1014 b -44 1157 79 1017 -29 1139 b -17 1193 -50 1164 -50 1164 b 43 1199 24 1229 17 1229 b 151 1069 158 1067 153 1074 b 86 1011 151 1067 89 1011 b 82 1014 86 1011 83 1013 m 206 135 b 206 46 207 86 207 47 b 135 36 206 46 174 42 b 61 28 97 32 64 28 b 57 29 60 26 57 28 b 51 226 57 31 54 119 b 40 653 49 333 44 525 b 35 885 38 781 35 885 b 186 876 36 886 185 878 b 194 550 186 876 190 729 b 206 135 199 371 204 183 "},"í":{"ha":242,"x_min":0,"x_max":0,"o":"m 96 1013 b 35 1068 85 1022 36 1067 b 101 1149 33 1072 35 1072 b 171 1221 165 1222 165 1224 b 233 1163 178 1217 233 1165 b 168 1085 233 1160 233 1160 b 96 1013 100 1007 101 1008 m 194 550 b 204 135 199 371 203 183 b 206 46 206 86 206 47 b 135 36 204 46 172 42 b 61 28 96 32 63 28 b 56 29 58 26 57 28 b 51 226 56 31 53 119 b 40 653 49 333 43 525 b 35 885 38 781 35 885 b 185 876 36 886 183 878 b 194 550 186 876 190 729 "},"î":{"ha":243,"x_min":0,"x_max":0,"o":"m 124 1096 b 68 993 122 1096 97 1050 l -19 1029 b -4 1057 -15 1038 -10 1047 b 81 1215 38 1135 75 1206 b 99 1239 92 1235 94 1240 b 176 1194 108 1236 174 1199 b 260 1039 178 1190 221 1113 l 176 997 b 124 1096 147 1053 124 1096 m 194 550 b 206 135 199 371 204 183 b 206 46 207 86 207 47 b 135 36 206 46 174 42 b 61 28 97 32 64 28 b 57 29 58 26 57 28 b 51 226 57 31 54 119 b 40 653 49 333 44 525 b 35 885 38 781 35 885 b 185 876 36 886 185 878 b 194 550 186 876 190 729 "},"ï":{"ha":242,"x_min":0,"x_max":0,"o":"m 92 1122 b 19 1047 92 1117 24 1047 b 13 1053 18 1047 15 1050 b -43 1111 -15 1078 -43 1107 b -18 1140 -43 1114 -40 1117 b 13 1172 -4 1154 10 1168 b 29 1185 19 1179 26 1185 b 92 1122 33 1185 92 1126 m 233 1154 b 240 1094 271 1117 269 1124 b 210 1063 228 1082 214 1068 b 183 1051 193 1046 192 1044 b 128 1110 157 1075 128 1107 b 190 1176 128 1114 160 1147 b 233 1154 201 1188 199 1189 m 194 550 b 204 135 199 371 203 183 b 206 46 206 86 206 47 b 135 36 204 46 172 42 b 61 28 96 32 63 28 b 56 29 58 26 57 28 b 51 226 56 31 53 119 b 40 653 49 333 43 525 b 35 885 38 781 35 885 b 185 876 36 886 183 878 b 194 550 186 876 190 729 "},"ñ":{"ha":661,"x_min":0,"x_max":0,"o":"m 226 1129 l 149 1129 l 149 1133 b 263 1257 149 1190 208 1256 b 357 1221 292 1258 307 1253 b 460 1200 406 1189 433 1183 b 465 1242 469 1206 472 1225 b 506 1243 465 1243 468 1243 l 546 1243 l 547 1236 b 518 1146 551 1197 542 1168 b 406 1114 490 1119 446 1107 l 406 1114 b 310 1157 378 1118 353 1129 b 250 1169 271 1182 265 1183 b 228 1133 240 1161 229 1143 m 608 968 b 624 865 628 967 626 971 b 618 746 622 839 619 785 b 614 629 617 706 615 654 b 610 514 614 606 611 554 b 606 397 608 475 607 422 b 597 163 604 351 600 243 b 589 4 592 19 590 4 b 442 -18 586 3 444 -18 b 436 -12 440 -18 438 -15 b 399 85 433 -7 428 8 b 369 163 393 101 379 136 b 326 276 360 188 340 239 b 285 388 313 314 293 364 b 235 521 247 485 235 519 b 233 519 235 521 233 521 b 226 489 232 518 229 504 b 214 428 224 472 218 444 b 200 354 211 411 206 378 b 188 285 196 331 190 300 b 176 231 185 269 179 244 b 147 106 156 115 154 107 b 101 111 144 104 124 107 b 36 122 79 115 50 121 b 6 136 11 126 6 129 b 24 235 6 139 17 196 b 36 300 26 247 32 276 b 68 467 58 419 63 438 b 82 540 71 483 78 517 b 96 618 86 564 93 599 b 111 697 100 638 107 674 b 132 794 124 764 129 789 b 253 840 135 799 165 811 b 310 747 274 847 269 857 b 340 667 319 724 332 688 b 385 551 349 646 368 593 b 432 425 400 508 422 451 b 451 375 442 399 451 375 b 454 406 453 374 453 388 b 463 619 458 513 460 579 b 467 739 463 644 465 697 b 471 851 468 779 469 829 b 474 925 472 874 472 907 b 482 969 475 961 476 968 b 608 968 486 971 575 969 "},"ò":{"ha":590,"x_min":0,"x_max":0,"o":"m 276 1083 b 151 1225 274 1085 165 1207 b 178 1261 144 1232 144 1232 b 238 1267 218 1297 211 1297 b 347 1139 354 1135 347 1142 b 281 1079 346 1135 285 1079 b 276 1083 281 1079 279 1081 m 251 971 b 567 476 426 1018 568 796 b 271 -22 567 171 439 -43 b 251 971 -49 19 -65 886 m 308 132 b 408 585 383 175 435 401 b 285 825 389 729 328 847 b 172 474 225 794 172 632 b 308 132 172 289 249 97 "},"ó":{"ha":590,"x_min":0,"x_max":0,"o":"m 281 1081 b 219 1138 269 1090 221 1135 b 286 1218 219 1142 219 1142 b 356 1289 350 1290 351 1292 b 419 1232 363 1285 419 1235 b 353 1153 419 1228 419 1228 b 281 1081 285 1075 288 1076 m 251 971 b 567 476 426 1018 568 796 b 271 -22 567 171 439 -43 b 251 971 -49 19 -65 886 m 308 132 b 408 585 383 175 435 401 b 285 825 389 729 328 847 b 172 474 225 794 172 632 b 308 132 172 289 249 97 "},"ô":{"ha":590,"x_min":0,"x_max":0,"o":"m 297 1164 b 242 1061 296 1164 272 1118 l 154 1097 b 169 1125 160 1107 164 1115 b 254 1283 211 1203 249 1274 b 272 1307 265 1304 268 1308 b 350 1263 282 1306 347 1267 b 433 1107 353 1260 394 1181 l 350 1065 b 297 1164 321 1121 297 1164 m 251 971 b 567 476 426 1018 568 796 b 271 -22 567 171 439 -43 b 251 971 -49 19 -65 886 m 308 132 b 408 585 383 175 435 401 b 285 825 389 729 328 847 b 172 474 225 794 172 632 b 308 132 172 289 249 97 "},"õ":{"ha":590,"x_min":0,"x_max":0,"o":"m 194 1129 l 115 1129 l 115 1133 b 229 1257 115 1190 175 1256 b 324 1221 260 1258 274 1253 b 428 1200 374 1189 400 1183 b 433 1242 436 1206 439 1225 b 472 1243 432 1243 435 1243 l 514 1243 l 514 1236 b 485 1146 518 1197 508 1168 b 372 1114 458 1119 414 1107 l 372 1114 b 278 1157 344 1118 319 1129 b 217 1169 238 1182 232 1183 b 194 1133 207 1161 196 1143 m 251 971 b 567 476 426 1018 568 796 b 271 -21 567 171 439 -43 b 251 971 -49 19 -65 886 m 308 132 b 408 585 383 175 435 401 b 285 825 389 729 328 847 b 172 474 225 794 172 632 b 308 132 172 289 249 97 "},"ö":{"ha":590,"x_min":0,"x_max":0,"o":"m 228 1121 b 172 1179 201 1146 172 1176 b 197 1208 172 1183 175 1186 b 229 1240 211 1222 225 1236 b 246 1253 236 1249 243 1253 b 307 1190 250 1253 307 1194 b 235 1117 307 1186 239 1117 b 228 1121 235 1117 232 1118 m 400 1121 b 344 1178 374 1144 344 1175 b 407 1244 344 1182 376 1215 b 449 1222 417 1256 414 1257 b 457 1163 486 1185 485 1193 b 425 1131 444 1150 431 1136 b 400 1121 408 1114 407 1113 m 251 971 b 567 476 426 1018 568 796 b 271 -21 567 171 439 -43 b 251 971 -49 19 -65 886 m 308 132 b 408 585 383 175 435 401 b 285 825 389 729 328 847 b 172 474 225 794 172 632 b 308 132 172 289 249 97 "},"÷":{"ha":657,"x_min":0,"x_max":0,"o":"m 276 663 b 228 721 231 708 226 714 b 319 813 231 725 314 811 b 422 715 328 815 422 726 b 326 618 422 707 335 618 b 276 663 322 618 314 626 m 632 572 b 632 433 636 569 636 438 b 24 431 626 426 32 425 b 24 571 18 436 18 565 b 632 572 28 575 626 576 m 322 385 b 422 285 331 383 422 293 b 326 188 422 276 335 188 b 276 233 322 188 314 196 b 231 293 226 282 225 285 b 322 385 236 301 319 385 "},"ø":{"ha":628,"x_min":0,"x_max":0,"o":"m 621 981 b 532 783 621 979 583 897 b 583 476 565 700 585 594 b 288 -22 583 171 456 -43 b 188 24 250 -17 217 0 b 140 -82 161 -36 142 -82 b 72 -58 140 -82 110 -71 b 3 -35 36 -46 6 -35 b 90 174 1 -35 51 83 b 268 971 -15 446 40 910 b 432 931 329 988 385 971 b 489 1053 465 1003 489 1053 b 621 981 490 1054 619 982 m 193 407 b 214 454 200 422 207 438 b 364 782 251 536 314 671 b 301 825 343 817 321 835 b 190 474 242 794 190 632 b 193 407 190 451 190 429 m 325 132 b 429 558 397 172 446 381 b 313 306 375 440 328 338 b 256 176 306 289 283 238 b 325 132 278 138 303 118 "},"ù":{"ha":617,"x_min":0,"x_max":0,"o":"m 281 1083 b 156 1225 278 1085 169 1207 b 182 1261 149 1232 149 1232 b 242 1267 222 1297 215 1297 b 351 1139 358 1135 351 1142 b 285 1079 350 1135 289 1079 b 281 1083 285 1079 283 1081 m 563 964 b 588 610 581 901 593 719 b 271 -28 568 214 439 -47 b 29 561 122 -10 29 219 b 79 931 29 721 58 931 b 213 900 88 931 210 901 b 208 846 217 896 215 883 b 263 149 156 593 181 267 b 328 163 286 115 297 118 b 418 908 424 307 465 649 b 415 936 417 924 414 935 b 563 964 421 942 561 967 "},"ú":{"ha":617,"x_min":0,"x_max":0,"o":"m 321 1081 b 260 1138 310 1090 261 1135 b 326 1218 260 1142 260 1142 b 396 1289 390 1290 392 1292 b 460 1232 403 1285 460 1235 b 393 1153 460 1228 460 1228 b 321 1081 325 1075 328 1076 m 563 964 b 588 610 581 901 593 719 b 271 -28 568 214 439 -47 b 29 561 122 -10 29 219 b 79 931 29 721 58 931 b 213 900 88 931 210 901 b 208 846 217 896 215 883 b 263 149 156 593 181 267 b 328 163 286 115 297 118 b 418 908 424 307 465 649 b 415 936 417 924 414 935 b 563 964 421 942 561 967 "},"û":{"ha":617,"x_min":0,"x_max":0,"o":"m 296 1164 b 240 1061 296 1164 271 1118 l 154 1097 b 169 1125 158 1107 164 1115 b 254 1283 211 1203 249 1274 b 272 1307 265 1304 268 1308 b 350 1263 282 1306 347 1267 b 433 1107 351 1260 394 1181 l 350 1065 b 296 1164 321 1121 297 1164 m 563 964 b 588 610 581 901 593 719 b 271 -28 568 214 439 -47 b 29 561 122 -10 29 219 b 79 931 29 721 58 931 b 213 900 88 931 210 901 b 208 846 217 896 215 883 b 263 149 156 593 181 267 b 328 163 286 115 297 118 b 418 908 424 307 465 649 b 415 936 417 924 414 935 b 563 964 421 942 561 967 "},"ü":{"ha":617,"x_min":0,"x_max":0,"o":"m 213 1121 b 157 1179 185 1146 157 1176 b 182 1208 157 1183 160 1186 b 213 1240 196 1222 210 1236 b 229 1253 219 1249 226 1253 b 292 1190 233 1253 292 1194 b 218 1117 292 1186 224 1117 b 213 1121 218 1117 215 1118 m 383 1121 b 328 1178 357 1144 328 1175 b 390 1244 328 1182 360 1215 b 433 1222 401 1256 399 1257 b 440 1163 469 1185 469 1193 b 408 1131 428 1150 414 1136 b 383 1121 393 1114 392 1113 m 563 964 b 588 610 581 901 593 719 b 271 -28 568 214 439 -47 b 29 561 122 -10 29 219 b 79 931 29 721 58 931 b 213 900 88 931 210 901 b 208 846 217 896 215 883 b 263 149 156 593 181 267 b 328 163 286 115 297 118 b 418 908 424 307 465 649 b 415 936 417 924 414 935 b 563 964 421 942 561 967 "},"ý":{"ha":539,"x_min":0,"x_max":0,"o":"m 368 1153 b 235 1138 292 1081 235 1136 b 300 1218 233 1142 233 1142 b 369 1289 364 1290 365 1292 b 433 1232 376 1285 433 1235 b 368 1153 433 1228 433 1228 m 544 926 b 504 792 549 922 546 913 b 389 454 457 654 457 651 b 263 82 321 256 292 167 b 217 -25 224 -32 226 -25 b 150 -4 214 -25 185 -17 b 86 29 85 18 83 18 b 129 163 86 33 106 93 b 172 290 153 231 172 289 b 28 747 172 293 142 388 b 4 846 0 835 -1 842 b 136 886 8 850 132 888 b 168 804 143 885 144 879 b 256 533 217 653 254 533 b 308 683 256 532 260 542 b 365 854 333 758 360 835 b 389 924 372 872 383 903 b 413 971 401 960 407 971 b 544 926 417 972 542 931 "},"ÿ":{"ha":539,"x_min":0,"x_max":0,"o":"m 204 1121 b 149 1179 176 1146 149 1176 b 174 1208 149 1183 151 1186 b 204 1240 188 1222 201 1236 b 221 1253 211 1249 218 1253 b 283 1190 225 1253 283 1194 b 211 1117 283 1186 215 1117 b 204 1121 210 1117 207 1118 m 375 1121 b 319 1178 349 1144 319 1175 b 392 1251 319 1183 386 1251 b 425 1222 396 1251 403 1244 b 432 1163 463 1185 461 1193 b 401 1131 419 1150 406 1136 b 375 1121 385 1114 383 1113 m 544 926 b 504 792 549 922 546 913 b 389 454 457 654 457 651 b 263 82 321 256 292 167 b 217 -25 224 -32 226 -25 b 150 -4 214 -25 185 -17 b 86 29 85 18 83 18 b 129 163 86 33 106 93 b 172 290 153 231 172 289 b 28 747 172 293 142 388 b 4 846 0 835 -1 842 b 136 886 8 850 132 888 b 168 804 143 885 144 879 b 256 533 217 653 254 533 b 308 683 256 532 260 542 b 365 854 333 758 360 835 b 389 924 372 872 383 903 b 413 971 401 960 407 971 b 544 926 417 972 542 931 "},"Œ":{"ha":913,"x_min":0,"x_max":0,"o":"m 585 539 b 582 514 583 528 582 517 b 581 510 581 513 581 510 b 694 565 582 510 626 531 b 782 603 775 604 776 604 b 839 496 786 603 810 558 b 771 435 850 472 853 476 b 588 346 643 372 607 356 l 567 336 l 568 286 b 604 129 568 188 583 121 b 776 314 643 146 708 215 b 789 331 782 322 788 329 b 896 224 790 331 896 225 b 874 193 896 222 886 208 b 576 -22 758 36 664 -32 b 458 69 525 -17 485 15 b 271 -22 407 4 343 -31 b 251 971 -49 19 -65 886 b 297 976 267 975 282 976 b 488 839 374 976 440 926 b 513 947 494 867 508 926 b 538 974 518 965 514 974 b 729 949 561 974 613 965 b 832 933 754 944 801 939 b 899 903 903 924 903 924 b 881 783 899 892 883 786 b 871 779 879 781 878 779 b 768 792 858 779 833 782 b 640 810 683 804 651 810 b 632 803 632 810 633 807 b 622 754 632 800 628 778 b 599 625 615 718 607 674 b 585 539 593 594 589 571 m 308 132 b 408 585 383 175 435 401 b 285 825 389 729 328 847 b 172 474 225 794 172 632 b 308 132 172 289 249 97 "},"œ":{"ha":913,"x_min":0,"x_max":0,"o":"m 585 539 b 582 514 583 528 582 517 b 581 510 581 511 581 510 b 694 565 582 510 626 531 b 782 603 775 604 776 604 b 839 496 786 603 810 558 b 771 435 850 472 853 476 b 588 346 643 372 607 356 l 567 336 l 567 286 b 604 129 568 188 583 121 b 776 314 643 144 708 215 b 789 331 782 322 788 329 b 896 224 790 331 896 225 b 874 193 896 222 886 208 b 576 -22 758 36 664 -32 b 458 69 525 -17 485 15 b 271 -22 407 4 343 -31 b 251 971 -49 19 -65 886 b 488 839 346 996 431 943 b 513 947 494 867 508 926 b 729 949 521 982 496 982 b 832 933 754 944 801 938 b 899 903 903 924 903 924 b 890 840 897 897 894 869 b 881 783 886 810 882 785 b 768 792 876 776 876 776 b 632 803 621 814 633 813 b 622 754 632 800 628 778 b 597 625 615 718 607 674 b 585 539 593 594 589 569 m 308 132 b 408 585 383 175 435 401 b 285 825 389 729 328 847 b 172 474 225 794 172 632 b 308 132 172 289 249 97 "},"Š":{"ha":510,"x_min":0,"x_max":0,"o":"m 322 1085 b 236 1243 317 1094 278 1167 b 222 1272 232 1253 226 1263 l 308 1307 b 364 1204 339 1250 364 1204 b 418 1304 364 1204 388 1249 l 501 1261 b 418 1107 461 1188 419 1110 b 340 1063 414 1101 349 1064 b 322 1085 336 1061 332 1065 m 446 971 b 486 904 472 976 467 985 b 499 829 504 828 503 831 b 478 825 496 829 488 826 b 169 619 354 797 213 701 b 281 499 146 571 160 554 b 467 347 394 446 442 407 b 129 -14 531 199 390 49 b 101 -19 114 -18 106 -19 b 93 -8 96 -19 96 -17 b 56 122 68 75 54 121 b 89 131 56 122 71 126 b 303 231 188 153 260 186 b 204 369 356 283 338 308 b 29 676 25 451 -28 544 b 446 971 82 797 269 931 "},"š":{"ha":511,"x_min":0,"x_max":0,"o":"m 324 1085 b 238 1243 318 1094 279 1167 b 224 1272 233 1253 228 1263 l 310 1307 b 365 1204 340 1250 365 1204 b 419 1304 365 1204 389 1249 l 503 1261 b 419 1107 463 1188 421 1110 b 342 1063 415 1101 350 1064 b 324 1085 338 1061 333 1065 m 447 971 b 488 904 474 976 468 985 b 500 829 506 828 504 831 b 479 825 497 829 489 826 b 171 619 356 797 214 701 b 282 499 147 571 161 554 b 468 347 396 446 443 407 b 131 -14 532 199 392 49 b 103 -19 115 -18 107 -19 b 94 -8 97 -19 97 -17 b 57 122 69 75 56 121 b 90 131 57 122 72 126 b 304 231 189 153 261 186 b 206 369 357 283 339 308 b 31 676 26 451 -26 544 b 447 971 83 797 271 931 "},"Ÿ":{"ha":539,"x_min":0,"x_max":0,"o":"m 204 1121 b 149 1179 176 1146 149 1176 b 174 1208 149 1183 151 1186 b 204 1240 188 1222 201 1236 b 221 1253 211 1249 218 1253 b 283 1190 225 1253 283 1194 b 211 1117 283 1186 215 1117 b 204 1121 210 1117 207 1118 m 375 1121 b 319 1178 349 1144 319 1175 b 392 1251 319 1183 386 1251 b 425 1222 396 1251 403 1244 b 432 1163 463 1185 461 1193 b 401 1131 419 1150 406 1136 b 375 1121 385 1114 383 1113 m 544 926 b 504 792 549 922 546 913 b 389 454 457 654 457 651 b 263 82 321 256 292 167 b 217 -25 224 -32 226 -25 b 150 -4 214 -25 185 -17 b 86 29 85 18 83 18 b 129 163 86 33 106 93 b 172 290 153 231 172 289 b 28 747 172 293 142 388 b 4 846 0 835 -1 842 b 136 886 8 850 132 888 b 168 804 143 885 144 879 b 256 533 217 653 254 533 b 308 683 256 532 260 542 b 365 854 333 758 360 835 b 389 924 372 872 383 903 b 413 971 401 960 407 971 b 544 926 417 972 542 931 "},"ž":{"ha":589,"x_min":0,"x_max":0,"o":"m 279 1085 b 194 1243 274 1094 236 1167 b 179 1272 189 1253 183 1263 l 265 1307 b 321 1204 296 1250 321 1204 b 375 1304 322 1204 346 1249 l 458 1261 b 375 1107 419 1188 376 1110 b 297 1063 372 1101 307 1064 b 279 1085 293 1061 289 1065 m 318 328 b 217 176 269 257 224 188 b 203 154 208 164 201 154 b 350 178 203 153 269 164 b 519 201 525 208 514 207 b 543 69 522 197 543 85 b 449 43 543 60 540 60 b 197 0 400 35 288 15 b 13 -26 32 -29 17 -31 b -10 107 10 -24 -11 100 b 38 182 -10 110 8 138 b 169 376 64 221 124 308 b 317 597 215 446 282 544 b 381 694 351 650 381 693 b 317 739 381 696 354 715 b 154 857 142 854 150 847 b 228 965 156 863 222 960 b 315 919 233 972 233 972 b 443 836 351 896 408 858 b 583 726 599 735 590 740 b 493 589 582 724 542 661 b 318 328 444 517 365 400 "},"–":{"ha":794,"x_min":0,"x_max":0,"o":"m 763 511 b 760 372 767 507 764 376 b 38 368 757 368 51 365 b 29 440 29 371 29 372 b 32 510 29 494 29 507 b 763 511 35 514 758 515 "},"—":{"ha":940,"x_min":0,"x_max":0,"o":"m 907 510 b 906 372 913 503 911 378 b 33 369 901 368 40 365 b 33 510 28 374 28 504 b 471 514 36 513 254 514 b 907 510 689 514 906 513 "},"€":{"ha":626,"x_min":0,"x_max":0,"o":"m 568 136 b 601 -4 569 135 601 -1 b 556 -14 601 -8 588 -11 b 507 -12 533 -15 533 -15 b 192 256 364 -3 243 100 l 185 275 l 111 275 b 36 279 51 276 38 276 b 38 421 35 281 36 419 b 163 422 38 421 103 422 b 164 444 163 422 164 432 b 171 529 164 471 167 499 b 174 551 172 540 174 550 b 106 553 174 551 143 551 b 38 554 68 553 38 553 b 39 696 33 558 35 694 b 133 699 43 699 64 699 l 222 699 l 231 717 b 547 985 299 854 419 957 b 583 915 569 990 567 997 b 597 843 592 876 599 844 b 585 840 597 843 592 842 b 425 742 529 831 469 794 b 393 700 410 725 393 701 b 428 699 393 699 408 699 l 463 697 l 463 626 b 460 554 463 563 463 556 b 392 551 457 553 442 551 b 325 547 326 551 326 551 b 322 536 325 544 324 539 b 311 425 317 511 310 436 b 385 421 313 421 313 421 b 463 347 476 419 464 431 b 400 274 463 264 471 275 b 344 272 369 274 344 274 b 368 229 344 269 360 242 b 550 135 413 163 481 128 b 568 136 558 136 567 136 "},"":{"ha":954,"x_min":0,"x_max":0,"o":"m 460 236 b 517 164 542 194 536 201 b 249 -25 447 39 343 -35 b 146 15 210 -21 178 -7 b 263 942 -71 179 6 789 b 367 971 296 961 332 971 b 535 879 432 971 494 939 b 482 817 549 858 551 863 b 425 782 446 792 432 782 b 414 790 421 782 418 785 b 365 822 396 813 382 822 b 311 792 350 822 333 813 b 218 157 175 664 122 301 b 267 125 232 136 249 125 b 383 236 301 125 342 164 b 404 261 393 253 396 261 b 460 236 413 261 428 253 m 915 965 b 968 832 918 967 964 850 b 947 821 968 831 961 826 b 804 763 849 781 825 771 b 778 750 790 757 778 751 b 776 506 776 749 775 681 b 775 -21 779 26 779 -17 b 643 -21 771 -25 647 -26 b 638 168 639 -17 639 -15 b 632 692 635 574 635 692 b 601 679 632 692 618 686 b 458 622 485 632 460 621 b 410 756 457 625 410 754 b 442 772 410 758 413 760 b 511 800 456 776 486 789 b 697 876 608 840 657 860 b 881 951 821 928 851 940 b 915 965 897 958 913 965 "},"":{"ha":806,"x_min":0,"x_max":0,"o":"m 546 207 b 563 135 553 206 554 201 b 563 60 571 67 571 64 b 15 -18 556 58 44 -15 l 4 -19 l 10 18 b 57 317 13 38 35 172 b 114 681 79 463 106 625 b 171 978 165 1011 160 978 b 303 958 181 978 297 961 b 274 722 310 956 310 949 b 213 331 256 601 228 426 b 186 157 197 236 186 157 b 364 182 186 157 267 168 b 546 207 469 197 543 207 m 782 128 b 799 3 811 1 810 7 b 667 -25 789 -1 676 -25 b 635 97 663 -22 658 -10 b 590 285 619 158 600 243 b 574 363 581 328 574 363 b 399 296 572 363 400 297 b 382 247 397 296 390 274 b 358 185 365 194 363 186 b 224 225 353 182 231 219 b 297 485 218 231 213 210 b 443 950 306 513 440 947 b 578 979 446 953 565 979 b 586 972 585 979 585 976 b 631 788 588 969 608 886 b 746 289 668 621 707 454 b 782 128 751 258 768 186 m 538 511 b 507 644 539 513 511 638 b 500 628 507 647 504 643 b 475 546 496 617 485 579 b 456 481 453 475 454 479 b 497 496 457 481 475 488 b 538 511 518 504 536 511 "},"":{"ha":592,"x_min":0,"x_max":0,"o":"m 551 197 b 569 64 554 192 571 69 b 563 57 568 60 567 58 b 10 -22 554 54 21 -22 b 13 36 4 -22 4 -22 b 50 275 18 68 35 175 b 135 810 100 593 110 653 b 169 975 160 974 160 974 b 303 956 176 975 296 958 b 269 690 310 951 310 946 b 192 193 203 269 197 233 b 186 154 188 172 185 154 b 354 178 186 154 261 164 b 543 203 485 197 528 203 b 551 197 551 203 550 201 m 522 258 b 381 236 517 254 382 235 b 383 933 379 239 382 932 b 449 943 385 933 414 938 b 519 951 485 947 517 951 l 526 953 l 525 606 b 522 258 525 397 524 258 "},"":{"ha":1078,"x_min":0,"x_max":0,"o":"m 1042 192 b 1051 1 1057 13 1057 4 b 910 -7 1043 -4 913 -11 b 871 413 906 -3 906 7 b 864 481 867 450 864 481 b 811 257 863 481 839 379 b 751 15 756 14 757 17 b 614 46 746 13 618 42 b 564 264 611 49 610 51 b 522 447 542 364 524 447 b 508 339 522 447 515 399 b 489 215 494 221 494 218 b 350 232 482 213 354 228 b 419 865 344 238 349 281 b 432 919 425 914 426 917 b 574 903 438 922 568 907 b 635 646 579 899 576 911 b 689 403 664 513 688 403 b 803 894 689 401 715 511 b 826 982 819 967 822 981 b 967 992 831 985 964 993 b 979 911 972 988 974 978 b 1028 343 996 722 1013 532 b 1042 192 1033 275 1040 208 m 289 179 b 546 213 476 206 529 213 b 554 208 554 213 553 211 b 571 74 557 201 572 79 b 364 38 569 67 571 67 b 6 -8 -8 -15 4 -14 b 88 514 7 -7 81 465 b 157 957 121 726 154 933 b 174 986 161 981 164 986 b 304 965 183 986 300 968 b 275 729 311 963 311 956 b 214 338 257 608 229 433 b 188 164 199 243 188 164 b 289 179 188 164 233 171 "},"":{"ha":719,"x_min":0,"x_max":0,"o":"m 544 203 b 561 132 551 201 553 197 b 563 57 571 58 571 61 b 164 -1 558 56 206 4 b 82 -12 157 -1 119 -7 b 4 -18 4 -24 4 -24 b 32 164 4 -17 17 65 b 67 386 47 263 64 363 b 150 915 78 456 142 860 b 172 975 160 978 158 975 b 304 954 185 975 301 956 b 285 792 308 950 307 940 b 228 428 272 713 246 549 b 189 182 208 308 192 197 b 185 154 186 167 185 154 b 363 179 185 154 265 165 b 544 203 469 194 542 204 m 697 786 b 447 231 736 489 603 194 b 329 828 303 264 244 561 b 353 868 339 856 340 868 b 410 849 363 868 379 861 b 471 796 488 821 481 825 b 468 390 426 664 425 471 b 476 382 471 385 474 382 b 503 419 482 382 490 393 b 553 781 549 508 571 663 b 613 831 546 822 539 817 b 674 842 643 836 663 842 b 697 786 693 842 692 828 "},"":{"ha":958,"x_min":0,"x_max":0,"o":"m 279 503 b 478 317 408 443 463 392 b 129 -11 507 175 369 47 b 101 -17 114 -15 106 -17 b 93 -6 96 -17 96 -14 b 56 125 68 79 54 125 b 88 133 56 126 71 129 b 324 261 206 161 301 213 b 189 379 343 299 319 319 b 11 560 74 432 25 482 b 301 922 -11 681 108 831 b 468 978 357 949 463 983 b 501 836 469 976 501 842 b 482 829 501 835 497 832 b 169 622 353 799 213 707 b 279 503 146 574 161 557 m 950 901 b 972 826 969 839 974 826 b 864 789 971 826 922 810 b 754 753 804 769 754 753 b 756 633 751 753 751 735 b 779 -6 772 226 781 -1 b 733 -15 778 -14 775 -14 b 667 -18 711 -17 681 -17 b 636 -17 651 -18 638 -18 b 614 361 628 -14 631 -54 b 601 700 607 547 601 699 b 506 668 601 700 558 686 b 399 636 403 633 403 633 b 356 758 394 639 356 751 b 368 769 356 763 360 767 b 925 969 421 796 908 969 b 950 901 926 971 933 950 "},"":{"ha":954,"x_min":0,"x_max":0,"o":"m 460 236 b 517 164 542 194 536 201 b 249 -25 447 39 343 -35 b 146 15 210 -21 178 -7 b 263 942 -71 179 6 789 b 367 971 296 961 332 971 b 535 879 432 971 494 939 b 482 817 549 858 551 863 b 425 782 446 792 432 782 b 414 790 421 782 418 785 b 365 822 396 813 382 822 b 311 792 350 822 333 813 b 218 157 175 664 122 301 b 267 125 232 136 249 125 b 383 236 301 125 342 164 b 404 261 393 253 396 261 b 460 236 413 261 428 253 m 915 965 b 968 832 918 967 964 850 b 947 821 968 831 961 826 b 804 763 849 781 825 771 b 778 750 790 757 778 751 b 776 506 776 749 775 681 b 775 -21 779 26 779 -17 b 643 -21 771 -25 647 -26 b 638 168 639 -17 639 -15 b 632 692 635 574 635 692 b 601 679 632 692 618 686 b 458 622 485 632 460 621 b 410 756 457 625 410 754 b 442 772 410 758 411 760 b 511 800 456 776 486 789 b 697 876 608 840 657 860 b 881 951 821 928 851 940 b 915 965 897 958 913 965 "},"":{"ha":806,"x_min":0,"x_max":0,"o":"m 546 207 b 563 135 553 206 554 201 b 563 60 571 67 571 64 b 15 -18 556 58 44 -15 l 4 -19 l 10 18 b 57 317 13 38 35 172 b 114 681 79 463 106 625 b 171 978 165 1011 160 978 b 303 958 181 978 297 961 b 274 722 310 956 310 949 b 213 331 256 601 228 426 b 186 157 197 236 186 157 b 364 182 186 157 267 168 b 546 207 469 197 543 207 m 782 128 b 799 3 811 1 810 7 b 667 -25 789 -1 676 -25 b 635 97 663 -22 658 -10 b 590 285 619 158 600 243 b 574 363 581 328 574 363 b 399 296 572 363 400 297 b 382 247 397 296 390 274 b 358 185 365 194 363 186 b 224 225 353 182 231 219 b 297 485 218 231 213 210 b 443 950 306 513 440 947 b 578 979 446 953 565 979 b 586 972 585 979 585 976 b 631 788 588 969 608 886 b 746 289 668 621 707 454 b 782 128 751 258 768 186 m 538 511 b 507 644 539 513 511 638 b 500 628 507 647 504 643 b 475 546 496 617 485 579 b 456 481 453 475 454 479 b 497 496 457 481 475 488 b 538 511 518 504 536 511 "},"":{"ha":592,"x_min":0,"x_max":0,"o":"m 551 197 b 569 64 554 192 571 69 b 563 57 568 60 567 58 b 10 -22 554 54 21 -22 b 13 36 4 -22 4 -22 b 50 275 18 68 35 175 b 135 810 100 593 110 653 b 169 975 160 974 160 974 b 303 956 176 975 296 958 b 269 690 310 951 310 946 b 192 193 203 269 197 233 b 186 154 188 172 185 154 b 354 178 186 154 261 164 b 543 203 485 197 528 203 b 551 197 551 203 550 201 m 522 258 b 381 236 517 254 382 235 b 383 933 379 239 382 932 b 449 943 385 933 414 938 b 519 951 485 947 517 951 l 526 953 l 525 606 b 522 258 525 397 524 258 "},"":{"ha":1078,"x_min":0,"x_max":0,"o":"m 1042 192 b 1051 1 1057 13 1057 4 b 910 -7 1043 -4 913 -11 b 871 413 906 -3 906 7 b 864 481 867 450 864 481 b 811 257 863 481 839 379 b 751 15 756 14 757 17 b 614 46 747 13 618 42 b 564 264 611 49 610 51 b 522 447 542 364 524 447 b 508 339 522 447 515 399 b 489 215 494 221 494 218 b 350 232 482 213 354 228 b 419 865 344 238 349 281 b 432 919 425 914 426 917 b 574 903 438 922 568 907 b 635 646 579 899 576 911 b 689 403 664 513 688 403 b 803 894 689 401 715 511 b 826 982 819 967 822 981 b 967 992 831 985 964 993 b 979 911 972 988 974 978 b 1028 343 996 722 1013 532 b 1042 192 1033 275 1040 208 m 289 179 b 546 213 476 206 529 213 b 554 208 554 213 553 211 b 571 74 557 201 572 79 b 364 38 569 67 571 67 b 6 -8 -8 -15 4 -14 b 88 514 7 -7 81 465 b 157 957 121 726 154 933 b 174 986 161 981 164 986 b 304 965 183 986 300 968 b 275 729 311 963 311 956 b 214 338 257 608 229 433 b 188 164 199 243 188 164 b 289 179 188 164 233 171 "},"":{"ha":719,"x_min":0,"x_max":0,"o":"m 544 203 b 561 132 551 201 553 197 b 563 57 571 58 571 61 b 164 -1 558 56 206 4 b 82 -12 157 -1 119 -7 b 4 -18 4 -24 4 -24 b 32 164 4 -17 17 65 b 67 386 47 263 64 363 b 150 915 78 456 142 860 b 172 975 160 978 158 975 b 304 954 185 975 301 956 b 285 792 308 950 307 940 b 228 428 272 713 246 549 b 189 182 208 308 192 197 b 185 154 186 167 185 154 b 363 179 185 154 265 165 b 544 203 469 194 542 204 m 697 786 b 447 231 736 489 603 194 b 329 828 303 264 244 561 b 353 868 339 856 340 868 b 410 849 363 868 379 861 b 471 796 488 821 481 825 b 468 390 426 664 425 471 b 476 382 471 385 474 382 b 503 419 482 382 490 393 b 553 781 549 508 571 663 b 613 831 546 822 539 817 b 674 842 643 836 663 842 b 697 786 693 842 692 828 "},"ﬆ":{"ha":958,"x_min":0,"x_max":0,"o":"m 279 503 b 478 317 408 443 463 392 b 129 -11 507 175 369 47 b 101 -17 114 -15 106 -17 b 93 -6 96 -17 96 -14 b 56 125 68 79 54 125 b 88 133 56 126 71 129 b 324 261 206 161 301 213 b 189 379 343 299 319 319 b 11 560 74 432 25 482 b 301 922 -11 681 108 831 b 468 978 357 949 463 983 b 501 836 469 976 501 842 b 482 829 501 835 497 832 b 169 622 353 799 213 707 b 279 503 146 574 161 557 m 950 901 b 972 826 969 839 974 826 b 864 789 971 826 922 810 b 754 753 804 769 754 753 b 756 633 751 753 751 735 b 779 -6 771 226 781 -1 b 732 -15 778 -14 775 -14 b 667 -18 711 -17 681 -17 b 635 -17 651 -18 638 -18 b 614 361 628 -14 631 -54 b 601 700 607 547 601 699 b 506 668 601 700 558 686 b 399 636 403 633 403 633 b 356 758 394 639 356 751 b 368 769 356 763 360 767 b 925 969 421 796 908 969 b 950 901 926 971 933 950 "}}}
